<?xml  version="1.0" encoding="UTF-8"?>
<!DOCTYPE svg PUBLIC "-//W3C//DTD SVG 1.0//EN" "http://www.w3.org/TR/2001/REC-SVG-20010904/DTD/svg10.dtd" >
<svg xmlns="http://www.w3.org/2000/svg" >
<metadata>
<version>1.0</version>
<id><![CDATA[Fenice ITC W01 Ult Oblique]]></id>
<vendor>Monotype Imaging Inc.</vendor>
<credits>
<name>Fonts.com WebFonts</name>
<URL>http://webfonts.fonts.com</URL>
<role>Home of the Web fonts</role>
</credits>
<license>
<URL>http://webfonts.fonts.com/Legal</URL>
</license>
<copyright><![CDATA[Font software Copyright 1990, 2001 Adobe Systems Incorporated. Typeface designs Copyright 2007 International Typeface Corporation. All rights reserved.]]></copyright>
<trademark><![CDATA["ITC is a trademark of International Typeface Corporation Registered in the U.S. Patent and Trademark Office and may be registered in certain jurisdictions; Fenice is a trademark of International Typeface Corporation and may be registered in certain jurisdictions."]]></trademark>
<licensee>
<name></name>
</licensee>
</metadata>
<defs >
<font horiz-adv-x="590" id="87711969-a8fd-4d35-9b0b-3fd5f8fda579">
<font-face font-family="" panose-1="2 7 9 4 9 7 6 9 2 4" ascent="977" descent="-250" units-per-em="1000" alphabetic="0">
</font-face>
<missing-glyph horiz-adv-x="0" />

<glyph unicode="&#xA;" />
<glyph unicode="&#xD;" horiz-adv-x="0" />
<glyph unicode=" " horiz-adv-x="333" />
<glyph unicode="!" horiz-adv-x="333" d="M195 232L180 513Q179 523 179 532T179 549Q179 584 189 613T218 664T262 696T316 708Q355 708 380 686T405 624Q405 590 394 565T370 513L234 232H195ZM204 180Q239 180 261 159T283 103Q283 79 273 58T246 20T208 -6T163 -16Q128 -16 106 6T83 62Q83 86 93 107T121 145T160 170T204 180Z"  />
<glyph unicode="&quot;" horiz-adv-x="333" d="M264 671Q264 658 260 642T249 603L195 423Q191 411 181 402T158 392Q147 392 141 399T135 418Q135 420 136 430T137 442L157 603Q165 663 179 685T225 708Q243 708 253 700T264 671ZM447 671Q447 658 443 642T432 603L378 423Q374 411 364 402T341 392Q330 392 324 399T318 418Q318 423 318 425T319 430L340 603Q348 663 362 685T408 708Q426 708 436 700T447 671Z"  />
<glyph unicode="#" horiz-adv-x="667" d="M603 188H511L443 0H337L404 188H308L240 0H134L201 188H114L135 286H235L277 406H190L211 504H312L378 692H484L419 504H515L581 692H687L622 504H699L678 406H587L545 286H624L603 188ZM384 406L342 286H438L480 406H384Z"  />
<glyph unicode="$" horiz-adv-x="667" d="M135 245H194Q200 172 205 129T224 63T263 33T336 22L382 241Q339 251 299 263T229 294T180 343T161 415Q161 487 190 539T265 625T367 677T479 698L496 778H544L527 698Q585 694 635 678T722 639L686 472H632Q622 541 617 580T602 640T576 667T523 676L481 479Q522 468 560 455T629 420T677 369T695 295Q695 284 694 272T690 245Q677 185 648 141T578 67T486 21T379 0L359 -92H311L331 0Q268 0 207 15T96 63L135 245ZM475 676Q454 674 428 669T380 652T343 620T328 567Q328 547 338 534T364 513T399 498T435 488L475 676ZM384 22Q408 22 433 30T480 55T515 95T529 147Q529 168 520 182T497 205T465 220T428 231L384 22Z"  />
<glyph unicode="%" horiz-adv-x="1000" d="M721 73Q716 50 716 38Q716 17 725 9T751 0Q773 0 788 16T813 73L871 347Q875 364 875 381Q875 402 866 411T840 420Q817 420 802 404T779 347L721 73ZM791 708H845L353 -16H298L791 708ZM276 345Q274 335 273 327T272 311Q272 290 281 281T307 272Q330 272 344 288T368 345L427 619Q431 636 431 653Q431 674 422 683T396 692Q373 692 358 676T335 619L276 345ZM844 436Q885 436 917 423T971 387T1005 332T1017 263Q1017 207 995 156T936 67T851 7T748 -16Q707 -16 675 -3T621 33T586 87T574 156Q574 212 596 263T655 352T741 413T844 436ZM399 708Q440 708 472 695T526 659T561 605T573 536Q573 480 551 429T492 340T406 279T303 256Q262 256 230 269T175 305T141 359T129 429Q129 485 151 535T210 624T296 685T399 708Z"  />
<glyph unicode="&amp;" horiz-adv-x="852" d="M918 386L913 364H832Q818 314 794 266T729 177L798 22H857L852 0H507L498 22Q481 14 457 7T405 -5T348 -13T291 -16Q238 -16 195 -6T120 25T73 74T56 139Q56 195 83 237T152 309T244 355T342 376Q328 399 317 431T306 499Q306 543 328 581T390 648T485 692T606 708Q645 708 680 702T743 682T787 647T803 596Q803 557 784 529T737 480T674 448T609 432L718 197Q756 232 776 276T810 364H697L702 386H918ZM348 359Q329 351 316 338T294 309T281 274T277 240Q277 203 290 165T325 96T375 46T432 26Q447 26 462 29T492 38L348 359ZM653 546Q659 574 659 601Q659 638 646 662T604 686Q580 686 558 669T536 616Q536 599 542 580T558 540T579 495T601 448Q621 457 633 482T653 546Z"  />
<glyph unicode="&apos;" horiz-adv-x="222" d="M300 671Q300 658 296 642T285 603L231 423Q227 411 217 402T194 392Q183 392 177 399T171 418Q171 420 171 425T172 433L193 603Q197 633 201 653T213 685T232 703T261 708Q279 708 289 700T300 671Z"  />
<glyph unicode="(" horiz-adv-x="389" d="M510 694Q480 664 454 628T404 542T359 424T317 259Q299 174 291 111T283 0Q283 -61 294 -101T325 -176L308 -190Q263 -158 226 -124T163 -49T122 38T108 142Q108 197 121 259Q139 343 173 409T255 528T364 624T498 708L510 694Z"  />
<glyph unicode=")" horiz-adv-x="389" d="M-10 -176Q20 -146 46 -110T95 -24T140 94T182 259Q200 345 208 408T216 520Q216 580 205 620T175 694L191 708Q236 676 273 642T336 567T377 480T391 375Q391 320 378 259Q360 175 326 109T244 -10T135 -106T1 -190L-10 -176Z"  />
<glyph unicode="*" horiz-adv-x="500" d="M400 708Q416 708 429 700T443 675Q443 664 435 646T415 608T391 568T371 536L372 533L433 591Q466 622 481 631T508 640Q524 640 535 628T547 596Q547 561 506 546T373 524V520L466 506Q475 505 485 503T503 497T518 485T524 468Q524 457 518 446T502 424T481 408T457 402Q444 402 431 415T407 445T386 481T371 509L368 507V497Q368 486 370 473T374 445T379 417T381 391Q381 360 362 347T321 334Q305 334 292 341T279 367Q279 377 287 395T307 434T330 474T348 507L345 509Q336 499 319 481T283 446T245 415T213 402Q194 402 183 416T172 449Q172 466 180 476T199 492T224 501T250 506L349 521V525Q277 530 239 541T201 576Q201 591 207 602T224 622T244 635T264 640Q275 640 287 632T319 591L354 533L357 536Q355 545 352 558T347 587T342 617T340 646Q340 680 358 694T400 708Z"  />
<glyph unicode="+" horiz-adv-x="600" d="M338 508H478L439 324H623L593 184H409L370 0H230L269 184H85L115 324H299L338 508Z"  />
<glyph unicode="&#x2c;" horiz-adv-x="333" d="M53 -152Q107 -125 153 -87T223 -1Q210 -6 193 -11T159 -16Q126 -16 105 6T83 62Q83 86 93 107T121 145T158 170T200 180Q238 180 259 155T281 93Q281 52 261 12T208 -64T137 -127T60 -174L53 -152Z"  />
<glyph unicode="-" horiz-adv-x="333" d="M89 324H381L351 184H59L89 324Z"  />
<glyph unicode="." horiz-adv-x="333" d="M204 180Q239 180 261 159T283 103Q283 79 273 58T246 20T208 -6T163 -16Q128 -16 106 6T83 62Q83 86 93 107T121 145T160 170T204 180Z"  />
<glyph unicode="/" horiz-adv-x="310" d="M405 708H469L12 -116H-52L405 708Z"  />
<glyph unicode="0" horiz-adv-x="667" d="M479 686Q447 686 429 637Q423 620 417 599T402 545T384 464T358 346Q342 271 332 221T316 138T308 84T306 46Q306 6 334 6Q366 6 384 55Q390 72 396 93T411 147T430 228T456 346Q472 421 482 470T497 553T505 608T507 646Q507 686 479 686ZM712 346Q689 240 643 171T542 60T430 1T330 -16Q293 -16 251 -4T173 38T114 116T90 238Q90 286 102 346Q124 452 170 521T271 632T383 691T483 708Q520 708 562 696T641 654T700 575T724 452Q724 404 712 346Z"  />
<glyph unicode="1" horiz-adv-x="667" d="M347 559Q321 540 293 524T236 492L231 508Q301 546 365 593T483 700H625L481 22H526L521 0H157L162 22H233L347 559Z"  />
<glyph unicode="2" horiz-adv-x="667" d="M223 646Q280 675 345 691T470 708Q600 708 672 673T745 563Q745 530 735 501T706 448T666 403T619 367Q590 348 551 330T470 294T384 262T301 234T230 213T179 200H638L651 264H673L617 0H56L97 193Q124 204 164 222T249 267T338 326T417 402T474 496T496 609Q496 633 491 648T477 671T456 683T431 686Q400 686 372 664T319 608T270 535T226 461H184L223 646Z"  />
<glyph unicode="3" horiz-adv-x="667" d="M214 655Q278 684 339 696T465 708Q600 708 669 670T739 571Q739 535 722 502T671 441T588 395T474 367Q578 359 631 325T685 230Q685 171 655 126T573 49T451 1T302 -16Q272 -16 239 -13T173 -3T111 18T61 54L101 238H153Q157 162 162 116T180 46T212 14T267 6Q294 6 318 16T362 51T400 115T430 215Q436 245 436 266Q436 317 404 334T306 355L311 377Q352 379 382 388T433 416T467 462T489 528Q498 571 498 601Q498 649 478 667T423 686Q387 686 356 661T298 602T251 530T216 468H174L214 655Z"  />
<glyph unicode="4" horiz-adv-x="667" d="M215 22H310L348 204H71L85 266Q128 318 177 370T283 477T404 588T540 708H703L610 266H696L682 204H596L558 22H610L605 0H210L215 22ZM425 564Q354 501 277 428T127 266H362L425 564Z"  />
<glyph unicode="5" horiz-adv-x="667" d="M234 692H720L678 492H214L180 333Q205 362 236 381T300 411T366 427T430 432Q482 432 527 420T606 384T659 326T679 248Q679 182 650 133T571 50T457 1T322 -16Q255 -16 191 -4T76 45L113 221H162Q162 210 162 201T161 182Q161 128 165 95T180 43T205 17T244 10Q284 10 316 31T372 87T409 164T422 250Q422 312 391 344T299 376Q261 376 226 353T168 297H150L234 692Z"  />
<glyph unicode="6" horiz-adv-x="667" d="M699 490H653Q645 547 639 584T623 644T597 676T552 686Q528 686 506 676T463 639T424 567T392 454L383 410Q409 433 446 449T528 466Q569 466 602 453T658 416T694 362T707 294Q707 224 676 167T594 70T481 7T356 -16Q290 -16 242 2T161 54T113 133T97 236Q97 336 131 422T224 572T365 672T539 708Q593 708 644 695T734 653L699 490ZM437 414Q423 414 411 406T387 375T363 313T338 210Q316 106 316 61Q316 29 325 18T350 6Q364 6 376 14T400 45T424 107T450 210Q461 263 466 299T471 358Q471 390 462 402T437 414Z"  />
<glyph unicode="7" horiz-adv-x="667" d="M221 692H819Q771 628 721 557T627 411T549 256T498 98L482 22H526L521 0H162L167 22H212L223 76Q239 153 282 213T384 323T513 413T649 492H201L183 410H161L221 692Z"  />
<glyph unicode="8" horiz-adv-x="667" d="M334 6Q346 6 358 11T382 35T405 87T429 177Q445 253 445 291Q445 327 434 337T407 348Q395 348 383 343T360 319T337 267T313 177Q297 100 297 61Q297 26 307 16T334 6ZM495 528Q503 570 508 598T513 644Q513 668 505 677T479 686Q464 686 453 680T433 655T414 607T395 528Q387 487 383 459T378 413Q378 388 386 379T412 370Q427 370 438 376T458 401T476 449T495 528ZM514 360Q547 355 578 346T634 320T674 279T689 219Q689 160 660 116T581 42T466 -1T330 -16Q270 -16 220 -6T132 23T74 73T53 144Q53 201 77 239T138 303T220 341T306 360Q275 367 247 376T196 400T161 437T147 492Q147 539 170 579T236 647T342 692T483 708Q610 708 676 668T743 560Q743 507 722 473T666 416T592 381T514 360Z"  />
<glyph unicode="9" horiz-adv-x="667" d="M97 240H143Q152 169 159 124T178 53T208 16T258 6Q295 6 324 30T375 91T412 174T436 264L447 317Q417 285 376 273T293 260Q257 260 227 272T173 305T137 357T124 424Q124 482 149 533T219 624T327 685T466 708Q532 708 580 689T660 637T707 557T723 456Q723 412 712 359Q694 272 655 203T559 85T429 10T268 -16Q199 -16 144 5T59 61L97 240ZM392 312Q403 312 414 316T437 338Q448 356 459 393T484 499Q496 556 501 590T506 643Q506 667 498 676T472 686Q460 686 450 683T428 660Q417 642 406 605T380 499Q367 440 363 406T358 353Q358 330 366 321T392 312Z"  />
<glyph unicode=":" horiz-adv-x="333" d="M204 180Q239 180 261 159T283 103Q283 79 273 58T246 20T208 -6T163 -16Q128 -16 106 6T83 62Q83 86 93 107T121 145T160 170T204 180ZM275 514Q310 514 332 493T354 437Q354 413 344 392T317 354T279 328T234 318Q199 318 177 340T154 396Q154 420 164 441T192 479T231 504T275 514Z"  />
<glyph unicode=";" horiz-adv-x="333" d="M53 -152Q107 -125 153 -87T223 -1Q210 -6 193 -11T159 -16Q126 -16 105 6T83 62Q83 86 93 107T121 145T158 170T200 180Q238 180 259 155T281 93Q281 52 261 12T208 -64T137 -127T60 -174L53 -152ZM275 514Q310 514 332 493T354 437Q354 413 344 392T317 354T279 328T234 318Q199 318 177 340T154 396Q154 420 164 441T192 479T231 504T275 514Z"  />
<glyph unicode="&lt;" horiz-adv-x="600" d="M552 -8L87 194L113 314L664 516L635 381L275 254L581 127L552 -8Z"  />
<glyph unicode="=" horiz-adv-x="600" d="M618 300H110L140 440H648L618 300ZM568 68H60L90 208H598L568 68Z"  />
<glyph unicode="&gt;" horiz-adv-x="600" d="M73 127L433 254L127 381L156 516L621 314L595 194L44 -8L73 127Z"  />
<glyph unicode="?" horiz-adv-x="556" d="M141 464L181 656Q289 708 412 708Q526 708 583 669T641 567Q641 519 618 486T559 428T481 385T402 349T338 311T306 261L303 244H275L280 270Q289 311 305 334T341 382T380 442T414 544Q418 564 420 581T422 613Q422 648 411 667T373 686Q347 686 325 670T280 624T234 554T183 464H141ZM286 180Q321 180 343 159T365 103Q365 79 355 58T328 20T290 -6T245 -16Q210 -16 188 6T165 62Q165 86 175 107T203 145T242 170T286 180Z"  />
<glyph unicode="@" horiz-adv-x="800" d="M437 210Q460 210 480 223T518 258T550 306T574 357T589 405T595 439Q595 454 589 462T565 470Q538 470 510 450T458 397T419 325T404 250Q404 230 413 220T437 210ZM650 520H729L646 325Q629 285 622 261T614 224Q614 213 617 207T631 200Q645 200 669 218T718 269T759 347T777 447Q777 485 763 519T720 579T651 620T554 636Q483 636 422 604T317 520T247 401T221 265Q221 216 237 177T283 111T352 70T441 56Q476 56 505 60T560 70T610 86T660 108L666 48Q604 16 544 0T411 -16Q342 -16 285 3T186 59T121 145T98 258Q98 345 137 426T241 570T391 670T569 708Q633 708 686 690T776 639T834 561T855 460Q855 417 839 363T791 261T711 181T600 148Q574 148 559 154T535 168T522 186T515 203Q506 195 493 186T464 168T427 154T383 148Q341 148 320 172T298 239Q298 285 319 337T376 434T460 507T562 536Q581 536 593 532T613 521T625 506T633 487L650 520Z"  />
<glyph unicode="A" horiz-adv-x="648" d="M563 700L658 22H680L675 0H313L318 22H407L371 270H166L27 22H109L104 0H-54L-49 22H3L383 700H563ZM368 292L331 564L178 292H368Z"  />
<glyph unicode="B" horiz-adv-x="722" d="M579 692Q680 692 732 660T784 568Q784 509 758 471T691 410T604 378T516 367Q556 365 595 358T665 336T715 294T734 225Q734 156 701 113T620 44T515 10T413 0H20L25 22H73L210 670H162L167 692H579ZM317 22H345Q370 22 388 28T421 52T446 102T468 189Q483 259 483 295Q483 333 467 344T416 356H388L317 22ZM392 378H429Q467 378 491 409T533 524Q538 550 541 570T544 607Q544 642 531 656T491 670H454L392 378Z"  />
<glyph unicode="C" horiz-adv-x="704" d="M740 475H698L671 588Q664 615 657 634T641 664T620 681T591 686Q565 686 539 672T489 621T440 517T394 346Q378 271 371 218T364 126Q364 87 370 64T386 28T411 11T440 6Q474 6 500 19T550 62T601 137T665 250H713L667 32Q616 11 551 -2T423 -16Q349 -16 289 0T186 50T120 133T97 250Q97 351 137 435T244 580T402 674T592 708Q646 708 695 696T779 660L740 475Z"  />
<glyph unicode="D" horiz-adv-x="766" d="M167 692H506Q580 692 637 674T735 623T795 541T816 432Q816 334 780 255T682 119T536 31T359 0H20L25 22H73L210 670H162L167 692ZM325 22Q343 22 355 22T376 24T394 30T413 41Q427 54 440 78T467 138T493 226T521 346Q538 430 547 488T556 584Q556 614 552 631T536 656T507 667T462 670L325 22Z"  />
<glyph unicode="E" horiz-adv-x="685" d="M20 0L25 22H73L210 670H162L167 692H781L735 475H697Q688 536 684 574T672 634T653 662T616 670H462L399 372H459Q476 372 489 382T514 410T539 453T569 508H597L534 214H506Q502 244 500 269T494 312T480 340T454 350H394L325 22H498Q521 22 539 37T576 81T616 153T665 252H703L649 0H20Z"  />
<glyph unicode="F" horiz-adv-x="667" d="M210 670H162L167 692H801L754 469H716L705 556Q700 592 695 614T680 649T658 665T623 670H462L399 372H487Q501 372 511 378T532 399T558 440T597 508H625L562 214H534Q528 255 525 281T517 323T504 344T482 350H394L325 22H429L424 0H20L25 22H73L210 670Z"  />
<glyph unicode="G" horiz-adv-x="741" d="M769 468H727L706 573Q693 637 668 661T601 686Q572 686 545 674T492 624T442 521T395 346Q369 223 357 154T345 53Q345 24 358 15T387 6Q412 6 430 22T456 74L506 310H448L453 332H811L806 310H758L707 69Q638 27 561 6T399 -16Q332 -16 277 -1T181 47T119 129T97 245Q97 356 137 442T246 588T404 677T592 708Q657 708 715 692T808 647L769 468Z"  />
<glyph unicode="H" horiz-adv-x="761" d="M507 692L502 670H462L399 372H522L585 670H545L550 692H892L887 670H837L700 22H750L745 0H403L408 22H448L517 350H394L325 22H365L360 0H18L23 22H73L210 670H160L165 692H507Z"  />
<glyph unicode="I" horiz-adv-x="407" d="M219 670H169L174 692H526L521 670H471L334 22H384L379 0H27L32 22H82L219 670Z"  />
<glyph unicode="J" horiz-adv-x="556" d="M705 692L700 670H642L554 252Q536 167 496 115T408 33T309 -6T220 -16Q170 -16 123 -6T38 30L90 274H128Q129 212 130 162T138 78T156 25T192 6Q225 6 242 31T270 104L390 670H302L307 692H705Z"  />
<glyph unicode="K" horiz-adv-x="759" d="M872 692L867 670H799L637 524L743 22H788L783 0H482L412 354L767 670H703L708 692H872ZM210 670H162L167 692H517L512 670H462L325 22H375L370 0H20L25 22H73L210 670Z"  />
<glyph unicode="L" horiz-adv-x="648" d="M554 692L549 670H462L325 22H471Q496 22 519 49T564 117T605 201T641 279H679L620 0H20L25 22H73L210 670H162L167 692H554Z"  />
<glyph unicode="M" horiz-adv-x="891" d="M471 692L508 306L709 692H1022L1017 670H967L830 22H880L875 0H513L518 22H578L708 644L373 0H285L232 638L101 22H168L163 0H18L23 22H73L210 670H160L165 692H471Z"  />
<glyph unicode="N" horiz-adv-x="691" d="M20 0L25 22H73L210 670H162L167 692H497L635 166L742 670H669L674 692H833L828 670H770L628 0H407L237 664L101 22H178L173 0H20Z"  />
<glyph unicode="O" horiz-adv-x="786" d="M543 708Q613 708 667 689T759 633T816 547T836 436Q836 340 801 257T704 114T562 19T390 -16Q320 -16 266 3T174 58T117 143T97 254Q97 351 132 434T229 578T371 673T543 708ZM539 686Q520 686 503 675T475 640Q462 614 441 543T394 346Q369 231 360 162T350 61Q350 6 394 6Q413 6 430 17T458 52Q470 78 491 149T540 346Q564 461 573 530T583 630Q583 686 539 686Z"  />
<glyph unicode="P" horiz-adv-x="712" d="M167 692H607Q659 692 696 682T756 655T791 613T802 558Q802 513 785 474T734 406T650 361T533 344H393L325 22H404L399 0H20L25 22H73L210 670H162L167 692ZM398 366H426Q444 366 458 371T485 393T509 440T530 518Q542 578 542 610Q542 647 529 658T490 670H462L398 366Z"  />
<glyph unicode="Q" horiz-adv-x="785" d="M499 -129Q480 -136 461 -139T421 -142Q364 -142 339 -120T313 -53Q313 -43 314 -33T317 -10Q211 8 154 78T97 254Q97 351 132 434T228 578T370 673T542 708Q612 708 666 689T758 633T815 547T835 436Q835 350 806 275T727 140T608 42T463 -10L453 -58Q450 -73 450 -83Q450 -100 462 -105T503 -110L499 -129ZM393 346Q368 231 359 163T349 63Q349 40 358 23T393 6Q416 6 432 19T457 53Q470 80 491 150T539 346Q563 461 572 529T582 629Q582 652 573 669T538 686Q515 686 499 673T474 639Q460 611 440 541T393 346Z"  />
<glyph unicode="R" horiz-adv-x="735" d="M167 692H605Q707 692 753 658T800 564Q800 526 788 493T754 434T702 391T637 367L721 22H743L738 0H472L399 372Q450 372 476 390T514 461L539 576Q542 589 543 600T544 620Q544 650 530 660T493 670H454L317 22H365L360 0H20L25 22H73L210 670H162L167 692Z"  />
<glyph unicode="S" horiz-adv-x="667" d="M115 248H167Q180 176 190 129T213 55T247 17T301 6Q331 6 359 13T410 35T447 72T461 124Q461 153 437 172T377 207T298 239T220 279T159 337T135 423Q135 483 164 535T244 626T361 686T502 708Q565 708 617 692T708 654L671 479H619Q606 545 595 585T569 648T534 678T482 686Q449 686 423 677T377 653T347 618T336 577Q336 547 361 527T425 489T507 454T590 412T653 354T679 270Q679 200 646 147T560 57T441 3T308 -16Q279 -16 248 -13T185 -3T125 14T70 39L115 248Z"  />
<glyph unicode="T" horiz-adv-x="648" d="M203 22L340 670H296Q279 670 264 660T232 626T196 562T152 463H114L163 692H779L730 463H692Q692 523 690 562T681 626T663 660T636 670H592L455 22H505L500 0H148L153 22H203Z"  />
<glyph unicode="U" horiz-adv-x="648" d="M512 692L507 670H457L345 140Q341 123 341 104Q341 67 361 45T427 22Q487 22 532 59T593 172L698 670H650L655 692H781L776 670H726L625 192Q613 134 591 95T532 31T446 -5T326 -16Q212 -16 154 17T96 130Q96 144 97 158T103 189L205 670H155L160 692H512Z"  />
<glyph unicode="V" horiz-adv-x="611" d="M94 670L99 692H485L480 670H401L458 177L735 670H656L661 692H821L816 670H761L384 0H225L140 670H94Z"  />
<glyph unicode="W" horiz-adv-x="889" d="M113 692H453L448 670H387L405 228L541 507L531 670H487L492 692H869L864 670H773L790 215L1009 670H938L943 692H1082L1077 670H1037L714 0H568L544 461L325 0H181L147 670H108L113 692Z"  />
<glyph unicode="X" horiz-adv-x="648" d="M142 692H546L541 670H446L515 439L699 670H615L620 692H787L782 670H724L524 414L641 22H680L675 0H272L277 22H380L293 302L55 22H147L142 0H-27L-22 22H27L286 325L182 670H137L142 692Z"  />
<glyph unicode="Y" horiz-adv-x="593" d="M91 692H503L498 670H397L477 322L721 670H629L634 692H810L805 670H751L495 306L435 22H495L490 0H118L123 22H183L235 268L138 670H86L91 692Z"  />
<glyph unicode="Z" horiz-adv-x="667" d="M782 692L293 22H463Q486 22 503 34T540 74T585 149T650 263H688L632 0H15L503 670H338Q314 670 296 656T260 616T224 553T178 468H140L188 692H782Z"  />
<glyph unicode="[" horiz-adv-x="389" d="M320 -174H58L242 692H504L499 670H421L247 -152H325L320 -174Z"  />
<glyph unicode="\" horiz-adv-x="310" d="M329 -116H265L137 708H201L329 -116Z"  />
<glyph unicode="]" horiz-adv-x="389" d="M179 692H441L257 -174H-5L0 -152H78L252 670H174L179 692Z"  />
<glyph unicode="^" horiz-adv-x="600" d="M385 692H509L610 313H468L415 539L265 313H124L385 692Z"  />
<glyph unicode="_" horiz-adv-x="500" d="M-27 -125L-16 -75H484L473 -125H-27Z"  />
<glyph unicode="`" horiz-adv-x="333" d="M330 569L192 645Q170 657 161 669T152 696Q152 711 158 724T175 746T198 761T224 767Q252 767 266 757T291 724L360 569H330Z"  />
<glyph unicode="a" horiz-adv-x="630" d="M425 324Q391 307 370 294T336 262T314 217T295 144Q290 119 287 101T284 71Q284 49 291 43T310 36Q330 36 353 64T389 153L425 324ZM159 332L189 476Q235 499 292 511T404 524Q526 524 587 494T648 384Q648 370 646 356T641 325L577 22H617L612 0H366L380 70Q365 44 345 28T300 2T250 -12T198 -16Q131 -16 91 15T50 101Q50 136 66 171T113 230Q144 254 185 265T270 287T356 310T431 352L448 432Q451 445 451 456Q451 502 398 502Q368 502 344 486T299 444T262 389T227 332H159Z"  />
<glyph unicode="b" horiz-adv-x="648" d="M448 362Q457 405 457 431Q457 474 425 474Q402 474 387 450T359 368L296 72Q294 63 293 56T292 42Q292 6 325 6Q338 6 348 12T367 32T383 69T398 128L448 362ZM148 692H428L382 476Q408 500 442 512T514 524Q557 524 588 508T639 464T668 402T678 330Q678 259 651 197T579 87T474 12T350 -16Q292 -16 249 4T178 73L110 0H61L203 670H143L148 692Z"  />
<glyph unicode="c" horiz-adv-x="574" d="M515 313Q511 343 510 376T504 438T488 484T453 502Q437 502 422 492T392 453T361 377T330 254Q322 217 318 187T314 133Q314 76 334 52T393 28Q424 28 450 40T496 73T530 122T550 181H572Q561 128 536 91T477 30T403 -5T319 -16Q269 -16 225 -5T148 30T95 90T75 175Q75 202 81 232Q96 304 132 358T219 450T329 505T455 524Q497 524 538 515T620 490L583 313H515Z"  />
<glyph unicode="d" horiz-adv-x="650" d="M451 692H731L589 22H631L626 0H391L409 86Q400 65 387 47T356 14T312 -8T256 -16Q211 -16 177 -1T121 40T87 102T76 180Q76 244 98 306T158 416T249 494T360 524Q395 524 422 511T466 478L506 670H446L451 692ZM450 405Q453 421 453 435Q453 474 423 474Q404 474 391 459T364 400Q350 354 338 301T316 198T302 113T296 64Q296 33 322 33Q332 33 341 37T360 51T376 78T390 123L450 405Z"  />
<glyph unicode="e" horiz-adv-x="599" d="M332 276L313 189Q308 166 306 148T304 113Q304 62 325 41T382 20Q420 20 454 34T516 74T562 131T590 199H612Q586 96 510 40T322 -16Q268 -16 223 -2T146 38T95 103T76 192Q76 270 107 331T189 435T304 501T434 524Q530 524 584 477T638 351Q638 340 636 319T628 276H332ZM424 298L448 411Q454 441 454 460Q454 484 446 493T424 502Q405 502 388 483T360 411L336 298H424Z"  />
<glyph unicode="f" horiz-adv-x="370" d="M124 508H172L177 532Q185 569 209 601T270 657T355 694T460 708Q496 708 526 702T586 688L559 562H499Q496 628 488 657T461 686Q447 686 436 675T417 626L392 508H499L494 486H387L289 22H359L354 0H24L29 22H69L167 486H119L124 508Z"  />
<glyph unicode="g" horiz-adv-x="611" d="M706 472H631Q652 461 661 441T671 397Q671 344 646 309T579 253T483 223T370 214Q323 214 278 223T197 257Q177 250 159 235T141 198Q141 179 161 171T225 162H444Q537 162 581 127T625 39Q625 -11 598 -52T523 -125T407 -173T260 -190Q153 -190 95 -161T37 -93Q37 -76 43 -63T60 -41T82 -25T106 -13Q71 -1 53 25T34 88Q34 122 46 151T78 204T126 244T184 269Q170 281 165 298T159 335Q159 377 180 412T240 472T329 510T440 524Q470 524 504 519T563 508H714L706 472ZM133 -98Q133 -127 167 -147T272 -168Q363 -168 411 -141T460 -80Q460 -58 433 -51T363 -43T271 -41T174 -32Q157 -43 146 -60T133 -98ZM476 464Q476 485 469 493T444 502Q419 502 405 483T379 410L362 328Q359 312 357 299T355 274Q355 253 362 245T387 236Q411 236 426 255T452 328L469 410Q476 442 476 464Z"  />
<glyph unicode="h" horiz-adv-x="655" d="M164 692H428L381 470Q419 500 457 512T533 524Q606 524 640 492T674 405Q674 394 673 383T669 358L598 22H634L629 0H373L459 404Q462 419 462 431Q462 451 454 459T435 468Q412 468 391 445T360 374L286 22H322L317 0H25L30 22H66L203 670H159L164 692Z"  />
<glyph unicode="i" horiz-adv-x="352" d="M117 486L122 508H394L291 22H331L326 0H26L31 22H71L169 486H117ZM326 708Q385 708 408 690T431 645Q431 626 424 609T401 577T358 555T292 546Q233 546 210 564T187 609Q187 628 194 645T217 677T260 699T326 708Z"  />
<glyph unicode="j" horiz-adv-x="352" d="M124 508H396L290 11Q278 -43 255 -81T197 -143T120 -179T24 -190Q3 -190 -24 -187L-20 -168Q10 -168 23 -157T43 -116L171 486H119L124 508ZM328 708Q387 708 410 690T433 645Q433 626 426 609T403 577T360 555T294 546Q235 546 212 564T189 609Q189 628 196 645T219 677T262 699T328 708Z"  />
<glyph unicode="k" horiz-adv-x="633" d="M537 508H709L704 486H646L548 406L622 21H663L659 0H395L349 273L612 486H532L537 508ZM158 692H428L286 22H326L321 0H11L16 22H66L203 670H153L158 692Z"  />
<glyph unicode="l" horiz-adv-x="352" d="M433 692L291 22H331L326 0H26L31 22H71L208 670H156L161 692H433Z"  />
<glyph unicode="m" horiz-adv-x="935" d="M131 508H378L368 454Q400 492 441 508T529 524Q577 524 611 507T660 448Q693 490 736 507T827 524Q893 524 923 491T954 404Q954 380 948 353L878 22H916L911 0H653L740 408Q741 414 741 419T742 429Q742 462 717 462Q698 462 683 443T659 387L582 22H620L615 0H357L444 408Q445 414 445 419T446 429Q446 462 421 462Q402 462 387 443T363 387L286 22H324L319 0H23L28 22H66L164 486H126L131 508Z"  />
<glyph unicode="n" horiz-adv-x="655" d="M125 508H389L381 470Q419 500 457 512T533 524Q606 524 640 492T674 405Q674 390 672 374T666 344L598 22H634L629 0H373L457 396Q459 404 460 414T462 431Q462 451 454 459T435 468Q412 468 391 445T360 374L286 22H322L317 0H25L30 22H66L164 486H120L125 508Z"  />
<glyph unicode="o" horiz-adv-x="637" d="M454 464Q454 479 448 490T425 502Q408 502 397 494T376 459T355 384T327 254Q310 170 300 119T290 44Q290 29 296 18T319 6Q336 6 347 14T368 49T389 124T417 254Q434 338 444 389T454 464ZM429 524Q480 524 523 509T599 467T649 400T667 312Q667 239 636 179T555 75T441 8T315 -16Q264 -16 221 -1T145 41T94 108T76 196Q76 269 107 329T189 432T302 500T429 524Z"  />
<glyph unicode="p" horiz-adv-x="646" d="M303 105Q299 88 299 72Q299 51 308 43T334 34Q366 34 379 71Q382 80 386 93T396 128T409 181T425 254Q434 296 440 327T449 379T455 414T457 437Q457 456 451 465T428 474Q407 474 390 452T362 381L303 105ZM131 508H368L352 432Q375 476 412 500T504 524Q546 524 578 508T632 464T665 399T676 321Q676 263 655 203T596 95T507 15T396 -16Q365 -16 334 -5T287 32L249 -152H309L304 -174H-36L-31 -152H29L164 486H126L131 508Z"  />
<glyph unicode="q" horiz-adv-x="648" d="M274 -152H334L371 26Q343 3 311 -6T243 -16Q159 -16 118 33T76 166Q76 186 78 208T86 254Q95 296 122 343T191 431T289 497T412 524Q468 524 513 500T590 440L648 508H694L554 -152H614L609 -174H269L274 -152ZM456 423Q462 451 462 468Q462 488 455 495T433 502Q418 502 407 492T383 455T359 379T330 254Q315 184 309 142T302 75Q302 49 309 42T328 34Q352 34 368 57T392 121L456 423Z"  />
<glyph unicode="r" horiz-adv-x="493" d="M131 508H376L357 418Q388 476 433 500T529 524Q542 524 557 520T587 508L546 317H478Q478 355 477 383T473 430T461 458T439 468Q417 468 392 438T353 340L286 22H364L359 0H23L28 22H66L164 486H126L131 508Z"  />
<glyph unicode="s" horiz-adv-x="574" d="M522 368Q519 412 512 438T492 479T461 497T416 502Q373 502 346 484T318 437Q318 416 337 403T387 380T451 358T515 329T564 286T584 219Q584 166 562 123T499 48T404 1T285 -16Q226 -16 173 -3T69 32L96 161H164Q169 113 174 83T190 36T219 13T268 6Q293 6 315 12T353 30T379 56T388 88Q388 110 368 123T318 146T254 165T189 191T139 232T119 297Q119 347 141 389T202 461T297 507T420 524Q465 524 514 517T608 491L582 368H522Z"  />
<glyph unicode="t" horiz-adv-x="424" d="M126 508H176L201 628H421L396 508H508L503 486H391L309 101Q307 93 306 86T305 72Q305 40 336 40Q371 40 397 77T436 177L441 203H463L456 168Q445 114 424 79T374 22T310 -7T237 -16Q167 -16 130 12T92 97Q92 107 93 117T97 138L171 486H121L126 508Z"  />
<glyph unicode="u" horiz-adv-x="655" d="M629 0H385L400 69Q374 27 328 6T229 -16Q156 -16 122 16T88 103Q88 114 89 125T93 150L164 486H128L133 508H389L302 98Q300 90 299 83T298 70Q298 50 306 42T326 34Q346 34 367 55T397 114L476 486H440L445 508H701L598 22H634L629 0Z"  />
<glyph unicode="v" horiz-adv-x="490" d="M90 508H392L387 486H348L379 174L555 486H484L489 508H622L617 486H578L301 -4H185L120 486H85L90 508Z"  />
<glyph unicode="w" horiz-adv-x="815" d="M86 508H397L392 486H348L391 200L482 355L466 486H434L439 508H745L740 486H691L720 194L881 486H818L823 508H951L946 486H909L635 -4H530L488 319L299 -4H195L119 486H81L86 508Z"  />
<glyph unicode="x" horiz-adv-x="574" d="M100 508H444L439 486H387L446 328L589 486H506L511 508H675L670 486H618L456 307L566 22H605L600 0H248L253 22H322L255 206L87 22H172L167 0H-14L-9 22H55L244 226L140 486H95L100 508Z"  />
<glyph unicode="y" horiz-adv-x="500" d="M88 508H424L419 486H360L410 229L565 486H495L500 508H638L633 486H594L285 -16Q267 -46 248 -74T205 -125T154 -160T89 -174Q66 -174 44 -166T3 -144L41 34H83Q87 -10 90 -42T97 -97T109 -131T130 -142Q148 -142 164 -132T196 -107T223 -73T247 -37L130 486H83L88 508Z"  />
<glyph unicode="z" horiz-adv-x="556" d="M173 508H638L280 22H385Q404 22 422 41T456 88T486 145T513 194H561L520 0H26L383 486H304Q288 486 275 476T248 447T217 398T177 330H135L173 508Z"  />
<glyph unicode="{" horiz-adv-x="389" d="M125 140Q131 168 131 188Q131 215 119 231T74 259Q99 266 116 276T144 300T162 334T175 378L214 562Q224 609 241 637T291 682T375 703T501 708L497 686Q454 678 433 650T400 568L363 393Q357 365 349 344T329 306T298 278T252 259Q286 249 299 231T313 183Q313 171 312 157T306 125L268 -50Q262 -79 262 -100Q262 -157 315 -168L311 -190Q248 -190 204 -187T132 -173T92 -145T79 -97Q79 -86 81 -73T86 -44L125 140Z"  />
<glyph unicode="|" horiz-adv-x="276" d="M141 750H281V-250H141V750Z"  />
<glyph unicode="}" horiz-adv-x="389" d="M374 378Q368 349 368 329Q368 303 380 287T425 259Q400 252 383 242T355 218T337 184T324 140L285 -44Q275 -91 257 -119T207 -164T124 -185T-2 -190L2 -168Q45 -160 66 -132T99 -50L137 125Q143 153 150 174T170 212T200 240T246 260Q212 269 199 287T186 333Q186 356 194 393L231 568Q237 596 237 618Q237 675 184 686L188 708Q251 708 295 705T367 691T407 663T420 615Q420 604 418 591T413 562L374 378Z"  />
<glyph unicode="~" horiz-adv-x="600" d="M588 240Q553 207 516 181T439 154Q410 154 388 164T344 188T296 211T236 222Q203 222 179 199T137 150L120 268Q134 284 149 299T183 327T222 346T269 354Q295 354 322 344T374 320T424 297T468 286Q483 286 496 292T523 309T548 332T571 358L588 240Z"  />
<glyph unicode="&#xA0;" horiz-adv-x="333" />
<glyph unicode="&#xA1;" horiz-adv-x="333" d="M248 286L263 5Q264 -6 264 -14T264 -31Q264 -66 254 -95T225 -146T181 -178T127 -190Q88 -190 63 -168T38 -106Q38 -72 49 -47T73 5L209 286H248ZM239 338Q204 338 182 359T160 415Q160 439 170 460T198 498T236 524T281 534Q316 534 338 512T360 456Q360 432 350 411T322 373T283 348T239 338Z"  />
<glyph unicode="&#xA2;" horiz-adv-x="667" d="M596 273Q586 227 566 193T518 134T456 95T386 75L364 -30H320L341 72Q291 72 247 84T170 120T118 180T99 266Q99 292 105 324Q120 393 153 446T234 537T339 595T457 618L476 708H520L502 619Q538 617 574 608T645 586L606 405H538Q534 436 533 470T528 532T512 578T477 596Q461 596 446 586T416 547T385 471T354 346Q346 309 342 279T338 225Q338 168 358 144T417 120Q448 120 473 132T519 165T553 214T574 273H596Z"  />
<glyph unicode="&#xA3;" horiz-adv-x="667" d="M139 360H217Q207 392 199 421T190 480Q190 525 213 566T279 639T382 689T515 708Q573 708 627 694T728 655L690 475H634Q623 527 615 567T598 633T574 672T535 686Q517 686 499 681T465 666T441 640T431 601Q431 576 438 541T446 468Q446 441 440 416T420 360H588L583 338H405Q360 285 307 252T200 192H632L651 281H673L613 0H87L124 174Q151 181 170 196T201 233T218 281T223 338H134L139 360Z"  />
<glyph unicode="&#xA4;" horiz-adv-x="667" d="M730 553L657 495Q667 481 671 459T676 409Q676 379 670 348T652 289T625 236T594 197L642 139L552 65L503 124Q479 107 438 95T356 82Q308 82 270 95T211 128L138 67L84 136L157 198Q146 212 141 232T136 278Q136 305 142 336T159 397T185 452T220 494L173 556L257 625L304 564Q331 584 376 597T469 610Q510 610 545 598T598 568L671 627L730 553ZM374 192Q408 192 441 207T501 248T543 308T559 379Q559 431 526 465T439 500Q404 500 371 485T312 443T270 383T254 311Q254 260 287 226T374 192Z"  />
<glyph unicode="&#xA5;" horiz-adv-x="667" d="M269 260H141L148 290H276L281 316L268 368H164L171 398H262L194 670H147L152 692H511L506 670H449L520 370L729 670H660L665 692H819L814 670H759L569 398H675L668 368H548L537 354L524 290H652L645 260H517L467 22H527L522 0H154L159 22H219L269 260Z"  />
<glyph unicode="&#xA6;" horiz-adv-x="276" d="M141 150H281V-150H141V150ZM141 650H281V350H141V650Z"  />
<glyph unicode="&#xA7;" horiz-adv-x="667" d="M579 519Q574 558 572 589T564 641T543 674T497 686Q484 686 471 681T447 668T429 647T422 620Q422 600 440 581T484 541T542 499T600 450T645 392T663 321Q663 285 651 255T618 201T570 158T512 126Q528 109 537 86T546 36Q546 21 543 8Q532 -43 506 -80T442 -142T359 -178T265 -190Q217 -190 174 -177T98 -134L134 36H186Q190 -31 194 -71T205 -133T225 -161T258 -168Q275 -168 293 -162T327 -143T353 -115T363 -80Q363 -58 345 -38T300 3T242 48T183 97T138 156T120 227Q120 261 131 293T163 351T210 397T270 429Q256 447 248 466T240 507Q240 560 265 598T329 660T413 696T498 708Q516 708 537 705T581 695T624 682T659 667L627 519H579ZM495 142Q500 144 507 147T520 156T531 169T536 184Q536 204 511 228T447 282T366 345T286 416Q268 411 255 398T241 364Q241 351 251 339T289 303T366 243T495 142Z"  />
<glyph unicode="&#xA8;" horiz-adv-x="333" d="M430 727Q459 727 475 711T492 668Q492 648 484 632T463 602T433 582T398 575Q369 575 353 591T336 634Q336 653 344 670T365 700T395 720T430 727ZM217 727Q246 727 262 711T279 668Q279 648 271 632T250 602T220 582T185 575Q156 575 140 591T123 634Q123 653 131 670T152 700T182 720T217 727Z"  />
<glyph unicode="&#xA9;" horiz-adv-x="800" d="M550 708Q616 708 669 688T760 630T817 542T837 429Q837 337 801 256T703 115T563 19T397 -16Q331 -16 278 4T188 61T131 149T111 261Q111 353 147 434T244 576T384 672T550 708ZM534 630Q471 630 413 601T311 524T241 411T214 274Q214 228 227 189T266 122T329 78T413 62Q475 62 533 90T635 168T706 281T733 417Q733 463 720 502T681 569T618 614T534 630ZM629 270L594 184Q563 169 526 160T456 150Q363 150 315 188T266 300Q266 363 287 411T346 493T434 543T543 560Q626 560 666 529L649 446H619Q617 461 613 477T601 505T579 526T544 534Q502 534 469 494T416 355Q404 298 404 261Q404 215 420 196T467 176Q502 176 535 201T598 270H629Z"  />
<glyph unicode="&#xAA;" horiz-adv-x="378" d="M339 579Q318 569 305 562T284 544T270 519T260 480Q258 468 257 459T255 444Q255 430 259 426T272 422Q284 422 298 439T321 492L339 579ZM168 589L188 680Q217 694 254 701T326 708Q406 708 446 690T487 623Q487 615 486 607T483 589L446 416H472L468 394H308L317 438Q299 409 266 397T199 384Q154 384 128 403T101 455Q101 487 114 506T148 538T196 556T250 569T302 582T345 605L353 644Q355 654 355 658Q355 686 321 686Q301 686 286 677T258 654T234 622T212 589H168Z"  />
<glyph unicode="&#xAB;" horiz-adv-x="463" d="M215 261L246 161Q253 139 257 129T261 110Q261 102 256 97T240 92Q233 92 226 99T211 114L85 258L270 400Q278 406 285 411T300 416Q306 416 311 413T317 402Q317 389 296 364L215 261ZM410 261L441 161Q448 139 452 129T456 110Q456 102 451 97T435 92Q428 92 421 99T406 114L280 258L465 400Q473 406 480 411T495 416Q500 416 506 413T512 403Q512 391 491 364L410 261Z"  />
<glyph unicode="&#xAC;" horiz-adv-x="600" d="M478 300H110L140 440H648L568 68H428L478 300Z"  />
<glyph unicode="&#xAD;" horiz-adv-x="333" d="M53 157L95 351H387L345 157H53Z"  />
<glyph unicode="&#xAE;" horiz-adv-x="800" d="M346 548H562Q603 548 629 530T655 473Q655 432 628 397T553 343L627 189L621 161H529Q518 161 510 178T494 220T480 275T462 330H446L424 227Q421 213 421 206Q421 196 428 192T459 187L453 161H264L270 187Q283 188 291 190T303 196T310 208T314 227L368 482Q370 490 371 495T372 505Q372 514 366 517T341 522L346 548ZM452 356H472Q482 356 493 365T514 389T530 427T536 476Q536 522 507 522H487L452 356ZM550 708Q616 708 669 688T760 630T817 542T837 429Q837 337 801 256T703 115T563 19T397 -16Q331 -16 278 4T188 61T131 149T111 261Q111 353 147 434T244 576T384 672T550 708ZM534 630Q471 630 413 601T311 524T241 411T214 274Q214 228 227 189T266 122T329 78T413 62Q475 62 533 90T635 168T706 281T733 417Q733 463 720 502T681 569T618 614T534 630Z"  />
<glyph unicode="&#xAF;" horiz-adv-x="333" d="M129 605L148 693H484L465 605H129Z"  />
<glyph unicode="&#xB0;" horiz-adv-x="400" d="M300 472Q319 472 337 480T370 503T393 536T402 575Q402 604 384 623T336 642Q317 642 299 634T267 611T243 579T234 540Q234 511 252 492T300 472ZM286 406Q231 406 197 439T162 525Q162 563 178 596T221 654T281 693T350 708Q405 708 439 675T474 590Q474 552 458 519T416 460T355 421T286 406Z"  />
<glyph unicode="&#xB1;" horiz-adv-x="600" d="M76 140H584L554 0H46L76 140ZM373 675H513L474 491H658L628 351H444L405 167H265L304 351H120L150 491H334L373 675Z"  />
<glyph unicode="&#xB2;" horiz-adv-x="450" d="M221 817Q257 834 299 843T380 853Q466 853 514 832T562 765Q562 734 544 708T495 660T426 621T347 589T270 565T205 547H486L495 587H517L483 429H118L143 545Q159 551 183 561T236 587T292 622T342 666T379 720T393 785Q393 813 381 822T353 831Q335 831 319 819T287 789T257 748T229 706H197L221 817Z"  />
<glyph unicode="&#xB3;" horiz-adv-x="450" d="M218 822Q259 839 298 846T380 853Q468 853 514 831T560 770Q560 749 549 729T518 693T470 665T409 649Q466 646 497 624T529 566Q529 531 510 504T458 458T379 429T281 419Q261 419 240 421T197 427T158 440T125 461L149 572H187Q192 529 196 504T208 464T228 446T261 441Q293 441 318 467T357 558Q360 573 360 585Q360 614 340 624T280 637L284 659Q337 661 366 689T395 781Q395 808 383 819T351 831Q330 831 311 817T276 784T248 744T226 710H194L218 822Z"  />
<glyph unicode="&#xB4;" horiz-adv-x="333" d="M221 569L336 724Q351 744 369 755T417 767Q440 767 457 752T475 711Q475 690 466 674T424 644L251 569H221Z"  />
<glyph unicode="&#xB5;" horiz-adv-x="648" d="M626 0H382L396 67Q378 37 346 17T275 -12L241 -174H-15L-10 -152H26L161 486H125L130 508H386L299 98Q297 90 296 83T295 70Q295 50 303 42T323 34Q343 34 364 55T394 114L473 486H437L442 508H698L595 22H631L626 0Z"  />
<glyph unicode="&#xB6;" horiz-adv-x="620" d="M723 692L717 664Q677 664 657 652T629 600L464 -174H352L530 662H471L293 -174H181L278 282Q216 282 184 322T152 430Q152 507 179 557T248 638T336 680T423 692H723Z"  />
<glyph unicode="&#xB7;" horiz-adv-x="333" d="M241 352Q276 352 298 331T320 275Q320 251 310 229T282 191T243 166T199 156Q164 156 142 177T120 233Q120 257 130 278T158 316T196 342T241 352Z"  />
<glyph unicode="&#xB8;" horiz-adv-x="333" d="M155 0L103 -80Q117 -74 133 -70T173 -65Q210 -65 232 -79T255 -122Q255 -142 245 -162T213 -198T160 -224T86 -234Q54 -234 29 -228T-15 -213L-1 -192Q13 -197 31 -200T66 -204Q101 -204 119 -185T137 -139Q137 -121 128 -112T105 -102Q89 -102 72 -109L61 -102L130 0H155Z"  />
<glyph unicode="&#xB9;" horiz-adv-x="450" d="M308 757Q291 746 273 737T237 717L235 733Q280 756 321 784T397 849H488L403 451H434L429 429H192L197 451H243L308 757Z"  />
<glyph unicode="&#xBA;" horiz-adv-x="378" d="M276 546Q265 496 260 469T255 427Q255 413 260 410T275 406Q285 406 291 409T304 427T316 469T334 546Q345 595 350 623T355 665Q355 679 350 682T335 686Q325 686 319 683T306 665T293 623T276 546ZM339 708Q373 708 402 699T452 673T485 632T497 578Q497 535 478 500T426 439T354 399T271 384Q237 384 208 393T158 419T124 460T112 514Q112 557 132 593T184 654T256 694T339 708Z"  />
<glyph unicode="&#xBB;" horiz-adv-x="463" d="M356 247L325 347Q318 369 314 379T310 398Q310 406 315 411T331 416Q338 416 345 409T360 394L486 250L301 108Q293 102 286 97T271 92Q266 92 260 95T254 105Q254 118 275 144L356 247ZM161 247L130 347Q123 369 119 379T115 398Q115 406 120 411T136 416Q143 416 150 409T165 394L291 250L106 108Q98 102 91 97T76 92Q71 92 65 95T59 105Q59 118 80 144L161 247Z"  />
<glyph unicode="&#xBC;" horiz-adv-x="1047" d="M288 612Q271 601 253 592T217 572L215 588Q260 611 301 639T377 704H468L383 306H414L409 284H172L177 306H223L288 612ZM819 708H883L352 -16H288L819 708ZM715 22H778L797 114H616L626 160Q681 223 752 285T917 424H1023L967 160H1022L1012 114H957L938 22H972L967 0H710L715 22ZM841 322Q803 290 755 249T669 160H807L841 322Z"  />
<glyph unicode="&#xBD;" horiz-adv-x="1047" d="M288 612Q271 601 253 592T217 572L215 588Q260 611 301 639T377 704H468L383 306H414L409 284H172L177 306H223L288 612ZM809 708H873L342 -16H278L809 708ZM718 388Q754 405 796 414T877 424Q963 424 1011 403T1059 336Q1059 305 1042 280T996 233T931 195T856 165T781 141T715 122Q711 121 708 120T702 118H983L992 158H1014L980 0H615L640 116Q656 122 680 132T733 158T789 193T839 237T876 291T890 356Q890 384 878 393T850 402Q832 402 816 390T784 360T754 319T726 277H694L718 388Z"  />
<glyph unicode="&#xBE;" horiz-adv-x="1047" d="M198 677Q239 694 278 701T360 708Q448 708 494 686T540 625Q540 604 529 584T498 548T450 520T389 504Q446 501 477 479T509 421Q509 386 490 359T438 313T359 284T261 274Q241 274 220 276T177 282T138 295T105 316L129 427H167Q172 384 176 359T188 319T208 301T241 296Q273 296 298 322T337 413Q340 428 340 440Q340 469 320 479T260 492L264 514Q317 516 346 544T375 636Q375 663 363 674T331 686Q310 686 291 672T256 639T228 599T206 565H174L198 677ZM839 708H903L372 -16H308L839 708ZM709 22H772L791 114H610L620 160Q675 223 746 285T911 424H1017L961 160H1016L1006 114H951L932 22H966L961 0H704L709 22ZM835 322Q797 290 749 249T663 160H801L835 322Z"  />
<glyph unicode="&#xBF;" horiz-adv-x="556" d="M525 54L485 -138Q377 -190 254 -190Q140 -190 83 -151T25 -49Q25 -1 48 32T106 90T183 133T262 169T327 207T360 257L363 274H391L386 248Q377 207 361 184T325 136T286 76T252 -26Q247 -46 246 -63T244 -95Q244 -130 255 -149T293 -168Q318 -168 341 -152T386 -106T432 -36T483 54H525ZM380 338Q345 338 323 359T301 415Q301 439 311 460T339 498T377 524T422 534Q457 534 479 512T501 456Q501 432 491 411T463 373T424 348T380 338Z"  />
<glyph unicode="&#xC0;" horiz-adv-x="648" d="M563 700L658 22H680L675 0H313L318 22H407L371 270H166L27 22H109L104 0H-54L-49 22H3L383 700H563ZM368 292L331 564L178 292H368ZM522 753L384 829Q362 841 353 853T344 880Q344 895 350 908T367 930T390 945T416 951Q444 951 458 941T483 908L552 753H522Z"  />
<glyph unicode="&#xC1;" horiz-adv-x="648" d="M563 700L658 22H680L675 0H313L318 22H407L371 270H166L27 22H109L104 0H-54L-49 22H3L383 700H563ZM368 292L331 564L178 292H368ZM413 753L528 908Q543 928 561 939T609 951Q632 951 649 936T667 895Q667 874 658 858T616 828L443 753H413Z"  />
<glyph unicode="&#xC2;" horiz-adv-x="648" d="M563 700L658 22H680L675 0H313L318 22H407L371 270H166L27 22H109L104 0H-54L-49 22H3L383 700H563ZM368 292L331 564L178 292H368ZM299 753L442 933H567L650 753H628L488 835L321 753H299Z"  />
<glyph unicode="&#xC3;" horiz-adv-x="648" d="M563 700L658 22H680L675 0H313L318 22H407L371 270H166L27 22H109L104 0H-54L-49 22H3L383 700H563ZM368 292L331 564L178 292H368ZM297 773Q305 798 318 824T349 871T392 905T446 919Q466 919 489 912T536 895Q560 886 582 879T619 872Q644 872 658 885T683 914H705Q695 888 681 863T649 816T605 782T549 769Q524 769 501 776T456 793T416 810T381 818Q355 818 341 803T319 773H297Z"  />
<glyph unicode="&#xC4;" horiz-adv-x="648" d="M563 700L658 22H680L675 0H313L318 22H407L371 270H166L27 22H109L104 0H-54L-49 22H3L383 700H563ZM368 292L331 564L178 292H368ZM622 911Q651 911 667 895T684 852Q684 832 676 816T655 786T625 766T590 759Q561 759 545 775T528 818Q528 837 536 854T557 884T587 904T622 911ZM409 911Q438 911 454 895T471 852Q471 832 463 816T442 786T412 766T377 759Q348 759 332 775T315 818Q315 837 323 854T344 884T374 904T409 911Z"  />
<glyph unicode="&#xC5;" horiz-adv-x="648" d="M563 700L658 22H680L675 0H313L318 22H407L371 270H166L27 22H109L104 0H-54L-49 22H3L383 700H563ZM368 292L331 564L178 292H368ZM528 977Q569 977 594 952T619 888Q619 861 607 837T576 794T531 764T481 753Q440 753 415 778T390 841Q390 868 401 892T432 936T477 966T528 977ZM516 917Q490 917 471 898T452 854Q452 837 463 825T493 813Q517 813 537 831T558 874Q558 892 547 904T516 917Z"  />
<glyph unicode="&#xC6;" horiz-adv-x="1000" d="M1096 692L1050 475H1012Q1003 536 999 574T987 634T968 662T931 670H777L714 372H774Q791 372 804 382T829 410T854 453T884 508H912L849 214H821Q817 244 815 269T809 312T795 340T769 350H709L640 22H813Q836 22 854 37T891 81T931 153T980 252H1018L964 0H316L321 22H388L440 270H209L19 22H104L99 0H-67L-62 22H-9L492 670H421L426 692H1096ZM445 292L526 671H521L227 292H445Z"  />
<glyph unicode="&#xC7;" horiz-adv-x="704" d="M740 475H698L671 588Q664 615 657 634T641 664T620 681T591 686Q565 686 539 672T489 621T440 517T394 346Q378 271 371 218T364 126Q364 87 370 64T386 28T411 11T440 6Q474 6 500 19T550 62T601 137T665 250H713L667 32Q616 11 551 -2T423 -16H404L363 -80Q377 -74 393 -70T433 -65Q470 -65 492 -79T515 -122Q515 -141 505 -161T473 -197T420 -223T346 -234Q314 -234 289 -228T245 -213L259 -192Q273 -197 291 -200T326 -204Q361 -204 379 -185T397 -139Q397 -121 388 -112T365 -102Q349 -102 332 -109L321 -102L380 -14Q315 -10 263 9T174 61T117 141T97 250Q97 351 137 435T244 580T402 674T592 708Q646 708 695 696T779 660L740 475Z"  />
<glyph unicode="&#xC8;" horiz-adv-x="685" d="M20 0L25 22H73L210 670H162L167 692H781L735 475H697Q688 536 684 574T672 634T653 662T616 670H462L399 372H459Q476 372 489 382T514 410T539 453T569 508H597L534 214H506Q502 244 500 269T494 312T480 340T454 350H394L325 22H498Q521 22 539 37T576 81T616 153T665 252H703L649 0H20ZM546 753L408 829Q386 841 377 853T368 880Q368 895 374 908T391 930T414 945T440 951Q468 951 482 941T507 908L576 753H546Z"  />
<glyph unicode="&#xC9;" horiz-adv-x="685" d="M20 0L25 22H73L210 670H162L167 692H781L735 475H697Q688 536 684 574T672 634T653 662T616 670H462L399 372H459Q476 372 489 382T514 410T539 453T569 508H597L534 214H506Q502 244 500 269T494 312T480 340T454 350H394L325 22H498Q521 22 539 37T576 81T616 153T665 252H703L649 0H20ZM407 753L522 908Q537 928 555 939T603 951Q626 951 643 936T661 895Q661 874 652 858T610 828L437 753H407Z"  />
<glyph unicode="&#xCA;" horiz-adv-x="685" d="M20 0L25 22H73L210 670H162L167 692H781L735 475H697Q688 536 684 574T672 634T653 662T616 670H462L399 372H459Q476 372 489 382T514 410T539 453T569 508H597L534 214H506Q502 244 500 269T494 312T480 340T454 350H394L325 22H498Q521 22 539 37T576 81T616 153T665 252H703L649 0H20ZM333 753L476 933H601L684 753H662L522 835L355 753H333Z"  />
<glyph unicode="&#xCB;" horiz-adv-x="685" d="M20 0L25 22H73L210 670H162L167 692H781L735 475H697Q688 536 684 574T672 634T653 662T616 670H462L399 372H459Q476 372 489 382T514 410T539 453T569 508H597L534 214H506Q502 244 500 269T494 312T480 340T454 350H394L325 22H498Q521 22 539 37T576 81T616 153T665 252H703L649 0H20ZM656 911Q685 911 701 895T718 852Q718 832 710 816T689 786T659 766T624 759Q595 759 579 775T562 818Q562 837 570 854T591 884T621 904T656 911ZM443 911Q472 911 488 895T505 852Q505 832 497 816T476 786T446 766T411 759Q382 759 366 775T349 818Q349 837 357 854T378 884T408 904T443 911Z"  />
<glyph unicode="&#xCC;" horiz-adv-x="407" d="M219 670H169L174 692H526L521 670H471L334 22H384L379 0H27L32 22H82L219 670ZM407 753L269 829Q247 841 238 853T229 880Q229 895 235 908T252 930T275 945T301 951Q329 951 343 941T368 908L437 753H407Z"  />
<glyph unicode="&#xCD;" horiz-adv-x="407" d="M219 670H169L174 692H526L521 670H471L334 22H384L379 0H27L32 22H82L219 670ZM298 753L413 908Q428 928 446 939T494 951Q517 951 534 936T552 895Q552 874 543 858T501 828L328 753H298Z"  />
<glyph unicode="&#xCE;" horiz-adv-x="407" d="M219 670H169L174 692H526L521 670H471L334 22H384L379 0H27L32 22H82L219 670ZM184 753L327 933H452L535 753H513L373 835L206 753H184Z"  />
<glyph unicode="&#xCF;" horiz-adv-x="407" d="M219 670H169L174 692H526L521 670H471L334 22H384L379 0H27L32 22H82L219 670ZM507 911Q536 911 552 895T569 852Q569 832 561 816T540 786T510 766T475 759Q446 759 430 775T413 818Q413 837 421 854T442 884T472 904T507 911ZM294 911Q323 911 339 895T356 852Q356 832 348 816T327 786T297 766T262 759Q233 759 217 775T200 818Q200 837 208 854T229 884T259 904T294 911Z"  />
<glyph unicode="&#xD0;" horiz-adv-x="766" d="M210 670H162L167 692H506Q580 692 637 674T735 623T795 541T816 432Q816 334 780 255T682 119T536 31T359 0H20L25 22H73L142 350H84L89 372H147L210 670ZM325 22Q343 22 355 22T376 24T394 30T413 41Q427 54 440 78T467 138T493 226T521 346Q538 430 547 488T556 584Q556 614 552 631T536 656T507 667T462 670L399 372H477L472 350H394L325 22Z"  />
<glyph unicode="&#xD1;" horiz-adv-x="691" d="M20 0L25 22H73L210 670H162L167 692H497L635 166L742 670H669L674 692H833L828 670H770L628 0H407L237 664L101 22H178L173 0H20ZM338 773Q346 798 359 824T390 871T433 905T487 919Q507 919 530 912T577 895Q601 886 623 879T660 872Q685 872 699 885T724 914H746Q736 888 722 863T690 816T646 782T590 769Q565 769 542 776T497 793T457 810T422 818Q396 818 382 803T360 773H338Z"  />
<glyph unicode="&#xD2;" horiz-adv-x="786" d="M543 708Q613 708 667 689T759 633T816 547T836 436Q836 340 801 257T704 114T562 19T390 -16Q320 -16 266 3T174 58T117 143T97 254Q97 351 132 434T229 578T371 673T543 708ZM539 686Q520 686 503 675T475 640Q462 614 441 543T394 346Q369 231 360 162T350 61Q350 6 394 6Q413 6 430 17T458 52Q470 78 491 149T540 346Q564 461 573 530T583 630Q583 686 539 686ZM608 753L470 829Q448 841 439 853T430 880Q430 895 436 908T453 930T476 945T502 951Q530 951 544 941T569 908L638 753H608Z"  />
<glyph unicode="&#xD3;" horiz-adv-x="786" d="M543 708Q613 708 667 689T759 633T816 547T836 436Q836 340 801 257T704 114T562 19T390 -16Q320 -16 266 3T174 58T117 143T97 254Q97 351 132 434T229 578T371 673T543 708ZM539 686Q520 686 503 675T475 640Q462 614 441 543T394 346Q369 231 360 162T350 61Q350 6 394 6Q413 6 430 17T458 52Q470 78 491 149T540 346Q564 461 573 530T583 630Q583 686 539 686ZM499 753L614 908Q629 928 647 939T695 951Q718 951 735 936T753 895Q753 874 744 858T702 828L529 753H499Z"  />
<glyph unicode="&#xD4;" horiz-adv-x="786" d="M543 708Q613 708 667 689T759 633T816 547T836 436Q836 340 801 257T704 114T562 19T390 -16Q320 -16 266 3T174 58T117 143T97 254Q97 351 132 434T229 578T371 673T543 708ZM539 686Q520 686 503 675T475 640Q462 614 441 543T394 346Q369 231 360 162T350 61Q350 6 394 6Q413 6 430 17T458 52Q470 78 491 149T540 346Q564 461 573 530T583 630Q583 686 539 686ZM385 753L528 933H653L736 753H714L574 835L407 753H385Z"  />
<glyph unicode="&#xD5;" horiz-adv-x="786" d="M543 708Q613 708 667 689T759 633T816 547T836 436Q836 340 801 257T704 114T562 19T390 -16Q320 -16 266 3T174 58T117 143T97 254Q97 351 132 434T229 578T371 673T543 708ZM539 686Q520 686 503 675T475 640Q462 614 441 543T394 346Q369 231 360 162T350 61Q350 6 394 6Q413 6 430 17T458 52Q470 78 491 149T540 346Q564 461 573 530T583 630Q583 686 539 686ZM383 773Q391 798 404 824T435 871T478 905T532 919Q552 919 575 912T622 895Q646 886 668 879T705 872Q730 872 744 885T769 914H791Q781 888 767 863T735 816T691 782T635 769Q610 769 587 776T542 793T502 810T467 818Q441 818 427 803T405 773H383Z"  />
<glyph unicode="&#xD6;" horiz-adv-x="786" d="M543 708Q613 708 667 689T759 633T816 547T836 436Q836 340 801 257T704 114T562 19T390 -16Q320 -16 266 3T174 58T117 143T97 254Q97 351 132 434T229 578T371 673T543 708ZM539 686Q520 686 503 675T475 640Q462 614 441 543T394 346Q369 231 360 162T350 61Q350 6 394 6Q413 6 430 17T458 52Q470 78 491 149T540 346Q564 461 573 530T583 630Q583 686 539 686ZM708 911Q737 911 753 895T770 852Q770 832 762 816T741 786T711 766T676 759Q647 759 631 775T614 818Q614 837 622 854T643 884T673 904T708 911ZM495 911Q524 911 540 895T557 852Q557 832 549 816T528 786T498 766T463 759Q434 759 418 775T401 818Q401 837 409 854T430 884T460 904T495 911Z"  />
<glyph unicode="&#xD7;" horiz-adv-x="600" d="M136 418L243 508L369 348L563 508L641 408L448 247L573 90L465 0L339 160L145 0L67 100L262 259L136 418Z"  />
<glyph unicode="&#xD8;" horiz-adv-x="786" d="M571 526Q578 564 580 589T582 630Q582 686 538 686Q498 686 474 640Q460 614 440 543T393 346L373 253L571 526ZM361 170Q354 128 352 102T349 59Q349 6 393 6Q433 6 457 52Q468 78 491 149T539 346L558 441L361 170ZM720 663Q777 628 806 570T836 436Q836 340 800 257T703 114T561 19T389 -16Q308 -16 246 12L174 -86H128L211 29Q155 64 126 121T97 254Q97 351 132 434T228 578T370 673T542 708Q626 708 684 682L753 778H803L720 663Z"  />
<glyph unicode="&#xD9;" horiz-adv-x="648" d="M512 692L507 670H457L345 140Q341 123 341 104Q341 67 361 45T427 22Q487 22 532 59T593 172L698 670H650L655 692H781L776 670H726L625 192Q613 134 591 95T532 31T446 -5T326 -16Q212 -16 154 17T96 130Q96 144 97 158T103 189L205 670H155L160 692H512ZM539 753L401 829Q379 841 370 853T361 880Q361 895 367 908T384 930T407 945T433 951Q461 951 475 941T500 908L569 753H539Z"  />
<glyph unicode="&#xDA;" horiz-adv-x="648" d="M512 692L507 670H457L345 140Q341 123 341 104Q341 67 361 45T427 22Q487 22 532 59T593 172L698 670H650L655 692H781L776 670H726L625 192Q613 134 591 95T532 31T446 -5T326 -16Q212 -16 154 17T96 130Q96 144 97 158T103 189L205 670H155L160 692H512ZM430 753L545 908Q560 928 578 939T626 951Q649 951 666 936T684 895Q684 874 675 858T633 828L460 753H430Z"  />
<glyph unicode="&#xDB;" horiz-adv-x="648" d="M512 692L507 670H457L345 140Q341 123 341 104Q341 67 361 45T427 22Q487 22 532 59T593 172L698 670H650L655 692H781L776 670H726L625 192Q613 134 591 95T532 31T446 -5T326 -16Q212 -16 154 17T96 130Q96 144 97 158T103 189L205 670H155L160 692H512ZM316 753L459 933H584L667 753H645L505 835L338 753H316Z"  />
<glyph unicode="&#xDC;" horiz-adv-x="648" d="M512 692L507 670H457L345 140Q341 123 341 104Q341 67 361 45T427 22Q487 22 532 59T593 172L698 670H650L655 692H781L776 670H726L625 192Q613 134 591 95T532 31T446 -5T326 -16Q212 -16 154 17T96 130Q96 144 97 158T103 189L205 670H155L160 692H512ZM639 911Q668 911 684 895T701 852Q701 832 693 816T672 786T642 766T607 759Q578 759 562 775T545 818Q545 837 553 854T574 884T604 904T639 911ZM426 911Q455 911 471 895T488 852Q488 832 480 816T459 786T429 766T394 759Q365 759 349 775T332 818Q332 837 340 854T361 884T391 904T426 911Z"  />
<glyph unicode="&#xDD;" horiz-adv-x="593" d="M91 692H503L498 670H397L477 322L721 670H629L634 692H810L805 670H751L495 306L435 22H495L490 0H118L123 22H183L235 268L138 670H86L91 692ZM402 753L517 908Q532 928 550 939T598 951Q621 951 638 936T656 895Q656 874 647 858T605 828L432 753H402Z"  />
<glyph unicode="&#xDE;" horiz-adv-x="712" d="M167 692H515L510 670H462L433 533H573Q676 533 722 496T769 400Q769 355 752 316T701 248T617 202T499 185H359L325 22H373L368 0H20L25 22H73L210 670H162L167 692ZM364 207H392Q410 207 424 212T451 234T475 281T496 359Q509 418 509 452Q509 488 496 499T457 511H429L364 207Z"  />
<glyph unicode="&#xDF;" horiz-adv-x="648" d="M35 22H73L183 541Q192 581 215 612T276 664T360 697T465 708Q578 708 635 677T693 582Q693 543 677 512T634 460T574 426T507 411Q584 404 625 363T667 254Q667 197 645 148T587 63T504 5T407 -16Q379 -16 353 -9T308 16L325 37Q330 32 337 29T350 26Q359 26 365 31T380 57T397 116T422 224Q433 272 438 303T443 353Q443 380 431 387T393 394L398 420Q414 420 426 425T447 445T464 486T481 556Q494 617 494 649Q494 669 488 677T469 686Q459 686 452 683T438 670T427 645T416 604L288 0H30L35 22Z"  />
<glyph unicode="&#xE0;" horiz-adv-x="630" d="M425 324Q391 307 370 294T336 262T314 217T295 144Q290 119 287 101T284 71Q284 49 291 43T310 36Q330 36 353 64T389 153L425 324ZM159 332L189 476Q235 499 292 511T404 524Q526 524 587 494T648 384Q648 370 646 356T641 325L577 22H617L612 0H366L380 70Q365 44 345 28T300 2T250 -12T198 -16Q131 -16 91 15T50 101Q50 136 66 171T113 230Q144 254 185 265T270 287T356 310T431 352L448 432Q451 445 451 456Q451 502 398 502Q368 502 344 486T299 444T262 389T227 332H159ZM479 569L341 645Q319 657 310 669T301 696Q301 711 307 724T324 746T347 761T373 767Q401 767 415 757T440 724L509 569H479Z"  />
<glyph unicode="&#xE1;" horiz-adv-x="630" d="M425 324Q391 307 370 294T336 262T314 217T295 144Q290 119 287 101T284 71Q284 49 291 43T310 36Q330 36 353 64T389 153L425 324ZM159 332L189 476Q235 499 292 511T404 524Q526 524 587 494T648 384Q648 370 646 356T641 325L577 22H617L612 0H366L380 70Q365 44 345 28T300 2T250 -12T198 -16Q131 -16 91 15T50 101Q50 136 66 171T113 230Q144 254 185 265T270 287T356 310T431 352L448 432Q451 445 451 456Q451 502 398 502Q368 502 344 486T299 444T262 389T227 332H159ZM370 569L485 724Q500 744 518 755T566 767Q589 767 606 752T624 711Q624 690 615 674T573 644L400 569H370Z"  />
<glyph unicode="&#xE2;" horiz-adv-x="630" d="M425 324Q391 307 370 294T336 262T314 217T295 144Q290 119 287 101T284 71Q284 49 291 43T310 36Q330 36 353 64T389 153L425 324ZM159 332L189 476Q235 499 292 511T404 524Q526 524 587 494T648 384Q648 370 646 356T641 325L577 22H617L612 0H366L380 70Q365 44 345 28T300 2T250 -12T198 -16Q131 -16 91 15T50 101Q50 136 66 171T113 230Q144 254 185 265T270 287T356 310T431 352L448 432Q451 445 451 456Q451 502 398 502Q368 502 344 486T299 444T262 389T227 332H159ZM256 569L399 749H524L607 569H585L445 651L278 569H256Z"  />
<glyph unicode="&#xE3;" horiz-adv-x="630" d="M425 324Q391 307 370 294T336 262T314 217T295 144Q290 119 287 101T284 71Q284 49 291 43T310 36Q330 36 353 64T389 153L425 324ZM159 332L189 476Q235 499 292 511T404 524Q526 524 587 494T648 384Q648 370 646 356T641 325L577 22H617L612 0H366L380 70Q365 44 345 28T300 2T250 -12T198 -16Q131 -16 91 15T50 101Q50 136 66 171T113 230Q144 254 185 265T270 287T356 310T431 352L448 432Q451 445 451 456Q451 502 398 502Q368 502 344 486T299 444T262 389T227 332H159ZM254 589Q262 614 275 640T306 687T349 721T403 735Q423 735 446 728T493 711Q517 702 539 695T576 688Q601 688 615 701T640 730H662Q652 704 638 679T606 632T562 598T506 585Q481 585 458 592T413 609T373 626T338 634Q312 634 298 619T276 589H254Z"  />
<glyph unicode="&#xE4;" horiz-adv-x="630" d="M425 324Q391 307 370 294T336 262T314 217T295 144Q290 119 287 101T284 71Q284 49 291 43T310 36Q330 36 353 64T389 153L425 324ZM159 332L189 476Q235 499 292 511T404 524Q526 524 587 494T648 384Q648 370 646 356T641 325L577 22H617L612 0H366L380 70Q365 44 345 28T300 2T250 -12T198 -16Q131 -16 91 15T50 101Q50 136 66 171T113 230Q144 254 185 265T270 287T356 310T431 352L448 432Q451 445 451 456Q451 502 398 502Q368 502 344 486T299 444T262 389T227 332H159ZM579 727Q608 727 624 711T641 668Q641 648 633 632T612 602T582 582T547 575Q518 575 502 591T485 634Q485 653 493 670T514 700T544 720T579 727ZM366 727Q395 727 411 711T428 668Q428 648 420 632T399 602T369 582T334 575Q305 575 289 591T272 634Q272 653 280 670T301 700T331 720T366 727Z"  />
<glyph unicode="&#xE5;" horiz-adv-x="630" d="M425 324Q391 307 370 294T336 262T314 217T295 144Q290 119 287 101T284 71Q284 49 291 43T310 36Q330 36 353 64T389 153L425 324ZM159 332L189 476Q235 499 292 511T404 524Q526 524 587 494T648 384Q648 370 646 356T641 325L577 22H617L612 0H366L380 70Q365 44 345 28T300 2T250 -12T198 -16Q131 -16 91 15T50 101Q50 136 66 171T113 230Q144 254 185 265T270 287T356 310T431 352L448 432Q451 445 451 456Q451 502 398 502Q368 502 344 486T299 444T262 389T227 332H159ZM486 793Q527 793 552 768T577 704Q577 677 565 653T534 610T489 580T439 569Q398 569 373 594T348 657Q348 684 359 708T390 752T435 782T486 793ZM474 733Q448 733 429 714T410 670Q410 653 421 641T451 629Q475 629 495 647T516 690Q516 708 505 720T474 733Z"  />
<glyph unicode="&#xE6;" horiz-adv-x="910" d="M425 324Q391 307 370 294T336 262T314 217T295 144Q290 119 287 101T284 71Q284 49 291 43T310 36Q330 36 353 64T389 153L425 324ZM641 276L622 189Q613 145 613 114Q613 62 635 41T693 20Q731 20 765 34T827 74T873 131T901 199H923Q897 96 821 40T633 -16Q549 -16 488 16T403 112Q386 71 365 46T319 7T263 -11T198 -16Q131 -16 91 15T50 101Q50 109 51 117T54 133Q64 178 87 205T143 249T213 273T290 291T365 314T431 352L448 432Q451 445 451 456Q451 502 398 502Q368 502 344 486T299 444T262 389T227 332H159L189 476Q235 499 292 511T404 524Q455 524 504 518T588 490Q625 507 664 515T745 524Q841 524 895 477T949 351Q949 338 947 322T939 276H641ZM733 298L757 411Q763 441 763 460Q763 484 755 493T733 502Q714 502 697 483T669 411L645 298H733Z"  />
<glyph unicode="&#xE7;" horiz-adv-x="574" d="M515 313Q511 343 510 376T504 438T488 484T453 502Q437 502 422 492T392 453T361 377T330 254Q322 217 318 187T314 133Q314 76 334 52T393 28Q424 28 450 40T496 73T530 122T550 181H572Q561 128 536 91T477 30T403 -5T319 -16Q313 -16 308 -16T297 -15L255 -80Q269 -74 285 -70T325 -65Q362 -65 384 -79T407 -122Q407 -141 397 -161T365 -197T312 -223T238 -234Q206 -234 181 -228T137 -213L151 -192Q165 -197 183 -200T218 -204Q253 -204 271 -185T289 -139Q289 -121 280 -112T257 -102Q241 -102 224 -109L213 -102L273 -13Q231 -8 195 5T133 42T91 99T75 175Q75 202 81 232Q96 304 132 358T219 450T329 505T455 524Q497 524 538 515T620 490L583 313H515Z"  />
<glyph unicode="&#xE8;" horiz-adv-x="599" d="M332 276L313 189Q308 166 306 148T304 113Q304 62 325 41T382 20Q420 20 454 34T516 74T562 131T590 199H612Q586 96 510 40T322 -16Q268 -16 223 -2T146 38T95 103T76 192Q76 270 107 331T189 435T304 501T434 524Q530 524 584 477T638 351Q638 340 636 319T628 276H332ZM424 298L448 411Q454 441 454 460Q454 484 446 493T424 502Q405 502 388 483T360 411L336 298H424ZM475 569L337 645Q315 657 306 669T297 696Q297 711 303 724T320 746T343 761T369 767Q397 767 411 757T436 724L505 569H475Z"  />
<glyph unicode="&#xE9;" horiz-adv-x="599" d="M332 276L313 189Q308 166 306 148T304 113Q304 62 325 41T382 20Q420 20 454 34T516 74T562 131T590 199H612Q586 96 510 40T322 -16Q268 -16 223 -2T146 38T95 103T76 192Q76 270 107 331T189 435T304 501T434 524Q530 524 584 477T638 351Q638 340 636 319T628 276H332ZM424 298L448 411Q454 441 454 460Q454 484 446 493T424 502Q405 502 388 483T360 411L336 298H424ZM366 569L481 724Q496 744 514 755T562 767Q585 767 602 752T620 711Q620 690 611 674T569 644L396 569H366Z"  />
<glyph unicode="&#xEA;" horiz-adv-x="599" d="M332 276L313 189Q308 166 306 148T304 113Q304 62 325 41T382 20Q420 20 454 34T516 74T562 131T590 199H612Q586 96 510 40T322 -16Q268 -16 223 -2T146 38T95 103T76 192Q76 270 107 331T189 435T304 501T434 524Q530 524 584 477T638 351Q638 340 636 319T628 276H332ZM424 298L448 411Q454 441 454 460Q454 484 446 493T424 502Q405 502 388 483T360 411L336 298H424ZM252 569L395 749H520L603 569H581L441 651L274 569H252Z"  />
<glyph unicode="&#xEB;" horiz-adv-x="599" d="M332 276L313 189Q308 166 306 148T304 113Q304 62 325 41T382 20Q420 20 454 34T516 74T562 131T590 199H612Q586 96 510 40T322 -16Q268 -16 223 -2T146 38T95 103T76 192Q76 270 107 331T189 435T304 501T434 524Q530 524 584 477T638 351Q638 340 636 319T628 276H332ZM424 298L448 411Q454 441 454 460Q454 484 446 493T424 502Q405 502 388 483T360 411L336 298H424ZM575 727Q604 727 620 711T637 668Q637 648 629 632T608 602T578 582T543 575Q514 575 498 591T481 634Q481 653 489 670T510 700T540 720T575 727ZM362 727Q391 727 407 711T424 668Q424 648 416 632T395 602T365 582T330 575Q301 575 285 591T268 634Q268 653 276 670T297 700T327 720T362 727Z"  />
<glyph unicode="&#xEC;" horiz-adv-x="352" d="M117 486L122 508H394L291 22H331L326 0H26L31 22H71L169 486H117ZM340 569L202 645Q180 657 171 669T162 696Q162 711 168 724T185 746T208 761T234 767Q262 767 276 757T301 724L370 569H340Z"  />
<glyph unicode="&#xED;" horiz-adv-x="352" d="M117 486L122 508H394L291 22H331L326 0H26L31 22H71L169 486H117ZM231 569L346 724Q361 744 379 755T427 767Q450 767 467 752T485 711Q485 690 476 674T434 644L261 569H231Z"  />
<glyph unicode="&#xEE;" horiz-adv-x="352" d="M117 486L122 508H394L291 22H331L326 0H26L31 22H71L169 486H117ZM117 569L260 749H385L468 569H446L306 651L139 569H117Z"  />
<glyph unicode="&#xEF;" horiz-adv-x="352" d="M117 486L122 508H394L291 22H331L326 0H26L31 22H71L169 486H117ZM440 727Q469 727 485 711T502 668Q502 648 494 632T473 602T443 582T408 575Q379 575 363 591T346 634Q346 653 354 670T375 700T405 720T440 727ZM227 727Q256 727 272 711T289 668Q289 648 281 632T260 602T230 582T195 575Q166 575 150 591T133 634Q133 653 141 670T162 700T192 720T227 727Z"  />
<glyph unicode="&#xF0;" horiz-adv-x="648" d="M327 233Q310 157 302 110T293 41Q293 27 299 17T323 6Q340 6 351 14T371 46T391 115T417 233Q450 384 450 425Q450 439 444 449T420 460Q403 460 392 452T372 420T352 351T327 233ZM313 495L298 530L426 593Q413 615 396 633T355 668L391 708Q431 699 466 683T533 645L661 708L678 672L566 618Q618 570 647 505T677 357Q677 265 647 195T566 78T451 8T319 -16Q268 -16 224 -2T146 38T95 100T76 183Q76 250 106 305T186 399T298 460T424 482Q432 482 439 482T455 481Q454 501 451 520T441 557L313 495Z"  />
<glyph unicode="&#xF1;" horiz-adv-x="655" d="M125 508H389L381 470Q419 500 457 512T533 524Q606 524 640 492T674 405Q674 390 672 374T666 344L598 22H634L629 0H373L457 396Q459 404 460 414T462 431Q462 451 454 459T435 468Q412 468 391 445T360 374L286 22H322L317 0H25L30 22H66L164 486H120L125 508ZM266 589Q274 614 287 640T318 687T361 721T415 735Q435 735 458 728T505 711Q529 702 551 695T588 688Q613 688 627 701T652 730H674Q664 704 650 679T618 632T574 598T518 585Q493 585 470 592T425 609T385 626T350 634Q324 634 310 619T288 589H266Z"  />
<glyph unicode="&#xF2;" horiz-adv-x="637" d="M454 464Q454 479 448 490T425 502Q408 502 397 494T376 459T355 384T327 254Q310 170 300 119T290 44Q290 29 296 18T319 6Q336 6 347 14T368 49T389 124T417 254Q434 338 444 389T454 464ZM429 524Q480 524 523 509T599 467T649 400T667 312Q667 239 636 179T555 75T441 8T315 -16Q264 -16 221 -1T145 41T94 108T76 196Q76 269 107 329T189 432T302 500T429 524ZM482 569L344 645Q322 657 313 669T304 696Q304 711 310 724T327 746T350 761T376 767Q404 767 418 757T443 724L512 569H482Z"  />
<glyph unicode="&#xF3;" horiz-adv-x="637" d="M454 464Q454 479 448 490T425 502Q408 502 397 494T376 459T355 384T327 254Q310 170 300 119T290 44Q290 29 296 18T319 6Q336 6 347 14T368 49T389 124T417 254Q434 338 444 389T454 464ZM429 524Q480 524 523 509T599 467T649 400T667 312Q667 239 636 179T555 75T441 8T315 -16Q264 -16 221 -1T145 41T94 108T76 196Q76 269 107 329T189 432T302 500T429 524ZM373 569L488 724Q503 744 521 755T569 767Q592 767 609 752T627 711Q627 690 618 674T576 644L403 569H373Z"  />
<glyph unicode="&#xF4;" horiz-adv-x="637" d="M454 464Q454 479 448 490T425 502Q408 502 397 494T376 459T355 384T327 254Q310 170 300 119T290 44Q290 29 296 18T319 6Q336 6 347 14T368 49T389 124T417 254Q434 338 444 389T454 464ZM429 524Q480 524 523 509T599 467T649 400T667 312Q667 239 636 179T555 75T441 8T315 -16Q264 -16 221 -1T145 41T94 108T76 196Q76 269 107 329T189 432T302 500T429 524ZM259 569L402 749H527L610 569H588L448 651L281 569H259Z"  />
<glyph unicode="&#xF5;" horiz-adv-x="637" d="M454 464Q454 479 448 490T425 502Q408 502 397 494T376 459T355 384T327 254Q310 170 300 119T290 44Q290 29 296 18T319 6Q336 6 347 14T368 49T389 124T417 254Q434 338 444 389T454 464ZM429 524Q480 524 523 509T599 467T649 400T667 312Q667 239 636 179T555 75T441 8T315 -16Q264 -16 221 -1T145 41T94 108T76 196Q76 269 107 329T189 432T302 500T429 524ZM257 589Q265 614 278 640T309 687T352 721T406 735Q426 735 449 728T496 711Q520 702 542 695T579 688Q604 688 618 701T643 730H665Q655 704 641 679T609 632T565 598T509 585Q484 585 461 592T416 609T376 626T341 634Q315 634 301 619T279 589H257Z"  />
<glyph unicode="&#xF6;" horiz-adv-x="637" d="M454 464Q454 479 448 490T425 502Q408 502 397 494T376 459T355 384T327 254Q310 170 300 119T290 44Q290 29 296 18T319 6Q336 6 347 14T368 49T389 124T417 254Q434 338 444 389T454 464ZM429 524Q480 524 523 509T599 467T649 400T667 312Q667 239 636 179T555 75T441 8T315 -16Q264 -16 221 -1T145 41T94 108T76 196Q76 269 107 329T189 432T302 500T429 524ZM582 727Q611 727 627 711T644 668Q644 648 636 632T615 602T585 582T550 575Q521 575 505 591T488 634Q488 653 496 670T517 700T547 720T582 727ZM369 727Q398 727 414 711T431 668Q431 648 423 632T402 602T372 582T337 575Q308 575 292 591T275 634Q275 653 283 670T304 700T334 720T369 727Z"  />
<glyph unicode="&#xF7;" horiz-adv-x="600" d="M85 184L115 324H623L593 184H85ZM304 472Q308 492 319 509T347 540T382 560T421 568Q456 568 477 547T498 493Q498 470 488 449T462 411T424 386T380 376Q345 376 324 398T302 452Q302 457 302 462T304 472ZM212 36Q216 56 227 73T254 104T289 124T328 132Q363 132 384 110T406 55Q406 32 396 11T368 -25T330 -50T287 -60Q252 -60 231 -39T209 15Q209 25 212 36Z"  />
<glyph unicode="&#xF8;" horiz-adv-x="637" d="M444 384Q449 412 451 431T454 462Q454 478 449 490T425 502Q408 502 397 494T376 459T355 383T327 254L318 212L444 384ZM300 124Q295 95 293 77T290 47Q290 30 295 18T319 6Q334 6 345 14T367 49T390 124T417 254L425 296L300 124ZM568 488Q614 462 640 417T667 312Q667 239 636 179T555 75T441 8T315 -16Q259 -16 212 3L142 -92H94L176 20Q130 47 103 91T76 196Q76 269 107 329T189 433T303 500T429 524Q458 524 484 520T532 505L602 600H650L568 488Z"  />
<glyph unicode="&#xF9;" horiz-adv-x="655" d="M629 0H385L400 69Q374 27 328 6T229 -16Q156 -16 122 16T88 103Q88 114 89 125T93 150L164 486H128L133 508H389L302 98Q300 90 299 83T298 70Q298 50 306 42T326 34Q346 34 367 55T397 114L476 486H440L445 508H701L598 22H634L629 0ZM491 569L353 645Q331 657 322 669T313 696Q313 711 319 724T336 746T359 761T385 767Q413 767 427 757T452 724L521 569H491Z"  />
<glyph unicode="&#xFA;" horiz-adv-x="655" d="M629 0H385L400 69Q374 27 328 6T229 -16Q156 -16 122 16T88 103Q88 114 89 125T93 150L164 486H128L133 508H389L302 98Q300 90 299 83T298 70Q298 50 306 42T326 34Q346 34 367 55T397 114L476 486H440L445 508H701L598 22H634L629 0ZM382 569L497 724Q512 744 530 755T578 767Q601 767 618 752T636 711Q636 690 627 674T585 644L412 569H382Z"  />
<glyph unicode="&#xFB;" horiz-adv-x="655" d="M629 0H385L400 69Q374 27 328 6T229 -16Q156 -16 122 16T88 103Q88 114 89 125T93 150L164 486H128L133 508H389L302 98Q300 90 299 83T298 70Q298 50 306 42T326 34Q346 34 367 55T397 114L476 486H440L445 508H701L598 22H634L629 0ZM268 569L411 749H536L619 569H597L457 651L290 569H268Z"  />
<glyph unicode="&#xFC;" horiz-adv-x="655" d="M629 0H385L400 69Q374 27 328 6T229 -16Q156 -16 122 16T88 103Q88 114 89 125T93 150L164 486H128L133 508H389L302 98Q300 90 299 83T298 70Q298 50 306 42T326 34Q346 34 367 55T397 114L476 486H440L445 508H701L598 22H634L629 0ZM591 727Q620 727 636 711T653 668Q653 648 645 632T624 602T594 582T559 575Q530 575 514 591T497 634Q497 653 505 670T526 700T556 720T591 727ZM378 727Q407 727 423 711T440 668Q440 648 432 632T411 602T381 582T346 575Q317 575 301 591T284 634Q284 653 292 670T313 700T343 720T378 727Z"  />
<glyph unicode="&#xFD;" horiz-adv-x="500" d="M88 508H424L419 486H360L410 229L565 486H495L500 508H638L633 486H594L285 -16Q267 -46 248 -74T205 -125T154 -160T89 -174Q66 -174 44 -166T3 -144L41 34H83Q87 -10 90 -42T97 -97T109 -131T130 -142Q148 -142 164 -132T196 -107T223 -73T247 -37L130 486H83L88 508ZM305 569L420 724Q435 744 453 755T501 767Q524 767 541 752T559 711Q559 690 550 674T508 644L335 569H305Z"  />
<glyph unicode="&#xFE;" horiz-adv-x="646" d="M303 105Q299 88 299 72Q299 51 308 43T334 34Q366 34 379 71Q382 80 386 93T396 128T409 181T425 254Q434 296 440 327T449 379T455 414T457 437Q457 456 451 465T428 474Q407 474 390 452T362 381L303 105ZM170 692H428L383 478Q400 496 430 510T504 524Q546 524 578 508T632 464T665 399T676 321Q676 263 655 203T596 95T507 15T396 -16Q365 -16 334 -6T287 30L249 -152H309L304 -174H-36L-31 -152H29L203 670H165L170 692Z"  />
<glyph unicode="&#xFF;" horiz-adv-x="500" d="M88 508H424L419 486H360L410 229L565 486H495L500 508H638L633 486H594L285 -16Q267 -46 248 -74T205 -125T154 -160T89 -174Q66 -174 44 -166T3 -144L41 34H83Q87 -10 90 -42T97 -97T109 -131T130 -142Q148 -142 164 -132T196 -107T223 -73T247 -37L130 486H83L88 508ZM562 727Q591 727 607 711T624 668Q624 648 616 632T595 602T565 582T530 575Q501 575 485 591T468 634Q468 653 476 670T497 700T527 720T562 727ZM349 727Q378 727 394 711T411 668Q411 648 403 632T382 602T352 582T317 575Q288 575 272 591T255 634Q255 653 263 670T284 700T314 720T349 727Z"  />
<glyph unicode="&#x131;" horiz-adv-x="352" d="M117 486L122 508H394L291 22H331L326 0H26L31 22H71L169 486H117Z"  />
<glyph unicode="&#x152;" horiz-adv-x="1078" d="M394 346Q368 226 359 156T349 57Q349 31 360 19T392 6Q431 6 455 52Q466 78 487 149T536 346Q562 465 571 535T580 635Q580 661 569 673T537 686Q519 686 502 675T474 640Q462 614 441 543T394 346ZM506 0Q477 0 448 -8T389 -16Q320 -16 266 3T174 58T117 143T97 254Q97 351 132 434T228 578T370 673T542 708Q583 708 616 700T687 692H1174L1128 475H1090Q1081 536 1077 574T1065 634T1046 662T1009 670H856L793 372H852Q869 372 882 382T907 410T932 453T962 508H990L927 214H899Q895 244 893 269T887 312T873 340T847 350H788L719 22H891Q914 22 932 37T969 81T1009 153T1058 252H1096L1042 0H506Z"  />
<glyph unicode="&#x153;" horiz-adv-x="932" d="M327 254Q310 170 300 119T290 44Q290 29 296 18T319 6Q336 6 347 14T368 49T389 124T417 254Q434 338 444 389T454 464Q454 479 448 490T425 502Q408 502 397 494T376 459T355 384T327 254ZM666 276L646 182Q641 162 640 146T638 115Q638 64 660 42T720 20Q757 20 790 35T851 75T896 132T923 199H945Q915 92 838 38T653 -16Q555 -16 489 30Q449 8 405 -4T315 -16Q264 -16 221 -1T145 41T94 108T76 196Q76 269 107 329T189 432T302 500T429 524Q475 524 515 513T585 478Q668 524 767 524Q863 524 917 477T971 351Q971 338 969 322T961 276H666ZM758 298L782 411Q788 441 788 460Q788 484 780 493T758 502Q739 502 722 483T694 411L670 298H758Z"  />
<glyph unicode="&#x160;" horiz-adv-x="667" d="M115 248H167Q180 176 190 129T213 55T247 17T301 6Q331 6 359 13T410 35T447 72T461 124Q461 153 437 172T377 207T298 239T220 279T159 337T135 423Q135 483 164 535T244 626T361 686T502 708Q565 708 617 692T708 654L671 479H619Q606 545 595 585T569 648T534 678T482 686Q449 686 423 677T377 653T347 618T336 577Q336 547 361 527T425 489T507 454T590 412T653 354T679 270Q679 200 646 147T560 57T441 3T308 -16Q279 -16 248 -13T185 -3T125 14T70 39L115 248ZM720 933L577 753H452L369 933H391L531 851L698 933H720Z"  />
<glyph unicode="&#x161;" horiz-adv-x="574" d="M522 368Q519 412 512 438T492 479T461 497T416 502Q373 502 346 484T318 437Q318 416 337 403T387 380T451 358T515 329T564 286T584 219Q584 166 562 123T499 48T404 1T285 -16Q226 -16 173 -3T69 32L96 161H164Q169 113 174 83T190 36T219 13T268 6Q293 6 315 12T353 30T379 56T388 88Q388 110 368 123T318 146T254 165T189 191T139 232T119 297Q119 347 141 389T202 461T297 507T420 524Q465 524 514 517T608 491L582 368H522ZM623 749L480 569H355L272 749H294L434 667L601 749H623Z"  />
<glyph unicode="&#x178;" horiz-adv-x="593" d="M91 692H503L498 670H397L477 322L721 670H629L634 692H810L805 670H751L495 306L435 22H495L490 0H118L123 22H183L235 268L138 670H86L91 692ZM651 911Q680 911 696 895T713 852Q713 832 705 816T684 786T654 766T619 759Q590 759 574 775T557 818Q557 837 565 854T586 884T616 904T651 911ZM438 911Q467 911 483 895T500 852Q500 832 492 816T471 786T441 766T406 759Q377 759 361 775T344 818Q344 837 352 854T373 884T403 904T438 911Z"  />
<glyph unicode="&#x17D;" horiz-adv-x="667" d="M782 692L293 22H463Q486 22 503 34T540 74T585 149T650 263H688L632 0H15L503 670H338Q314 670 296 656T260 616T224 553T178 468H140L188 692H782ZM710 933L567 753H442L359 933H381L521 851L688 933H710Z"  />
<glyph unicode="&#x17E;" horiz-adv-x="556" d="M173 508H638L280 22H385Q404 22 422 41T456 88T486 145T513 194H561L520 0H26L383 486H304Q288 486 275 476T248 447T217 398T177 330H135L173 508ZM614 749L471 569H346L263 749H285L425 667L592 749H614Z"  />
<glyph unicode="&#x192;" horiz-adv-x="667" d="M1 -38H65Q59 -66 57 -87T54 -123Q54 -148 60 -158T78 -168Q88 -168 99 -154T121 -116L330 380H217L221 402H338L395 538Q431 624 507 666T681 708Q719 708 755 699T820 682L779 558H715Q725 611 725 643Q725 686 705 686Q691 686 682 672T664 638L564 402H677L669 380H555L385 -23Q364 -72 331 -104T257 -156T175 -182T94 -190Q58 -190 22 -183T-43 -159L1 -38Z"  />
<glyph unicode="&#x2C6;" horiz-adv-x="333" d="M107 569L250 749H375L458 569H436L296 651L129 569H107Z"  />
<glyph unicode="&#x2C7;" horiz-adv-x="333" d="M502 749L359 569H234L151 749H173L313 667L480 749H502Z"  />
<glyph unicode="&#x2DA;" horiz-adv-x="333" d="M337 793Q378 793 403 768T428 704Q428 677 416 653T385 610T340 580T290 569Q249 569 224 594T199 657Q199 684 210 708T241 752T286 782T337 793ZM325 733Q299 733 280 714T261 670Q261 653 272 641T302 629Q326 629 346 647T367 690Q367 708 356 720T325 733Z"  />
<glyph unicode="&#x2DC;" horiz-adv-x="333" d="M105 589Q113 614 126 640T157 687T200 721T254 735Q274 735 297 728T344 711Q368 702 390 695T427 688Q452 688 466 701T491 730H513Q503 704 489 679T457 632T413 598T357 585Q332 585 309 592T264 609T224 626T189 634Q163 634 149 619T127 589H105Z"  />
<glyph unicode="&#x2013;" horiz-adv-x="500" d="M69 324H569L539 184H39L69 324Z"  />
<glyph unicode="&#x2014;" horiz-adv-x="1000" d="M69 324H1069L1039 184H39L69 324Z"  />
<glyph unicode="&#x2018;" horiz-adv-x="296" d="M377 698Q322 672 274 630T202 534Q213 542 230 549T270 556Q305 556 324 537T343 488Q343 461 332 441T305 408T268 387T231 380Q193 380 173 400T153 455Q153 498 172 538T223 613T294 675T372 718L377 698Z"  />
<glyph unicode="&#x2019;" horiz-adv-x="296" d="M150 390Q177 403 203 420T253 458T295 503T326 554Q315 546 298 539T257 532Q222 532 203 551T184 601Q184 627 195 647T222 680T259 701T296 708Q334 708 354 688T374 633Q374 590 355 550T304 475T234 413T156 370L150 390Z"  />
<glyph unicode="&#x201A;" horiz-adv-x="296" d="M33 -158Q89 -132 137 -90T209 6Q198 -2 181 -9T141 -16Q106 -16 87 3T67 52Q67 78 78 98T106 132T143 153T180 160Q218 160 237 140T257 86Q257 43 238 3T187 -73T117 -135T39 -178L33 -158Z"  />
<glyph unicode="&#x201C;" horiz-adv-x="534" d="M377 698Q322 672 274 630T202 534Q213 542 230 549T270 556Q305 556 324 537T343 488Q343 461 332 441T305 408T268 387T231 380Q193 380 173 400T153 455Q153 498 172 538T223 613T294 675T372 718L377 698ZM615 698Q560 672 512 630T440 534Q451 542 468 549T508 556Q543 556 562 537T581 488Q581 461 570 441T543 408T506 387T469 380Q431 380 411 400T391 455Q391 498 410 538T461 613T532 675T610 718L615 698Z"  />
<glyph unicode="&#x201D;" horiz-adv-x="534" d="M150 390Q177 403 203 420T253 458T295 503T326 554Q315 546 298 539T257 532Q222 532 203 551T184 601Q184 627 195 647T222 680T259 701T296 708Q334 708 354 688T374 633Q374 590 355 550T304 475T234 413T156 370L150 390ZM388 390Q415 403 441 420T491 458T533 503T564 554Q553 546 536 539T495 532Q460 532 441 551T422 601Q422 627 433 647T460 680T497 701T534 708Q572 708 592 688T612 633Q612 590 593 550T542 475T472 413T394 370L388 390Z"  />
<glyph unicode="&#x201E;" horiz-adv-x="534" d="M33 -158Q89 -132 137 -90T209 6Q198 -2 181 -9T141 -16Q106 -16 87 3T67 52Q67 78 78 98T106 132T143 153T180 160Q218 160 237 140T257 86Q257 43 238 3T187 -73T117 -135T39 -178L33 -158ZM271 -158Q327 -132 375 -90T447 6Q436 -2 419 -9T379 -16Q344 -16 325 3T305 52Q305 78 316 98T344 132T381 153T418 160Q456 160 475 140T495 86Q495 43 476 3T425 -73T355 -135T277 -178L271 -158Z"  />
<glyph unicode="&#x2020;" horiz-adv-x="652" d="M402 -152H452L447 -174H147L152 -152H202L297 296H168L158 246H136L194 518H216L205 468H334L377 670H327L332 692H629L624 670H577L534 468H663L674 518H696L638 246H616L626 296H497L402 -152Z"  />
<glyph unicode="&#x2021;" horiz-adv-x="652" d="M473 182H602L613 232H635L577 -40H555L566 10H437L402 -152H452L447 -174H147L152 -152H202L237 10H108L97 -40H75L133 232H155L144 182H273L312 366H183L173 316H151L208 588H230L220 538H349L377 670H327L332 692H629L624 670H577L549 538H678L688 588H710L653 316H631L641 366H512L473 182Z"  />
<glyph unicode="&#x2022;" horiz-adv-x="500" d="M497 346Q489 310 469 279T421 224T358 187T287 173Q224 173 186 211T147 308Q147 350 165 388T212 456T280 502T360 519Q391 519 417 509T462 480T491 436T501 382Q501 373 500 364T497 346Z"  />
<glyph unicode="&#x2026;" horiz-adv-x="1000" d="M205 180Q240 180 262 159T284 103Q284 79 274 58T247 20T209 -6T164 -16Q129 -16 107 6T84 62Q84 86 94 107T122 145T161 170T205 180ZM538 180Q573 180 595 159T617 103Q617 79 607 58T580 20T542 -6T497 -16Q462 -16 440 6T417 62Q417 86 427 107T455 145T494 170T538 180ZM871 180Q906 180 928 159T950 103Q950 79 940 58T913 20T875 -6T830 -16Q795 -16 773 6T750 62Q750 86 760 107T788 145T827 170T871 180Z"  />
<glyph unicode="&#x2030;" horiz-adv-x="1000" d="M472 114Q466 85 463 65T459 30Q459 13 464 7T480 0Q489 0 496 5T509 23T522 58T536 114L560 224Q572 282 572 307Q572 324 567 331T552 338Q543 338 536 333T522 315T509 280T496 224L472 114ZM669 708H719L137 -16H88L669 708ZM245 468Q239 439 236 419T232 384Q232 367 237 361T253 354Q262 354 269 359T282 377T295 412T309 468L333 578Q345 636 345 661Q345 678 340 685T325 692Q316 692 309 687T295 669T282 634T269 578L245 468ZM555 354Q612 354 644 322T676 227Q676 169 659 124T614 47T550 0T477 -16Q420 -16 388 16T355 111Q355 169 372 214T417 290T481 337T555 354ZM328 708Q385 708 417 676T449 581Q449 523 432 478T387 401T323 354T250 338Q193 338 161 370T128 465Q128 523 145 568T190 644T254 691T328 708ZM897 354Q954 354 986 322T1018 227Q1018 169 1001 124T956 47T892 0T819 -16Q762 -16 730 16T697 111Q697 169 714 214T759 290T823 337T897 354ZM814 114Q807 85 805 65T801 30Q801 13 806 7T822 0Q831 0 838 5T851 23T864 58T878 114L902 224Q914 282 914 307Q914 324 909 331T894 338Q885 338 878 333T864 315T851 280T838 224L814 114Z"  />
<glyph unicode="&#x2039;" horiz-adv-x="296" d="M229 261L260 161Q267 139 271 129T275 110Q275 102 270 97T254 92Q247 92 240 99T225 114L99 258L284 400Q292 406 299 411T314 416Q319 416 325 413T331 403Q331 395 326 386T310 364L229 261Z"  />
<glyph unicode="&#x203A;" horiz-adv-x="296" d="M175 247L144 347Q137 369 133 379T129 398Q129 406 134 411T150 416Q157 416 164 409T179 394L305 250L120 108Q112 102 105 97T90 92Q85 92 79 95T73 105Q73 118 94 144L175 247Z"  />
<glyph unicode="&#x20AC;" horiz-adv-x="667" d="M396 293Q385 233 380 190T375 115Q375 80 380 59T394 26T415 10T440 6Q471 6 494 19T539 62T587 137T647 250H690L644 32Q598 11 540 -2T425 -16Q360 -16 307 0T217 48T159 128T138 242Q138 266 141 293H78L85 323H146L151 346Q154 360 157 372T165 398H101L107 428H176Q202 492 245 544T342 632T460 688T592 708Q640 708 683 696T758 660L719 475H682L660 588Q655 615 649 634T635 664T617 681T591 686Q570 686 549 675T508 636T467 557T426 428H581L575 398H419Q415 386 413 373T407 346L402 323H559L552 293H396Z"  />
<glyph unicode="&#x2122;" horiz-adv-x="1000" d="M155 692H534L516 606H488Q488 635 481 652T446 670H404L334 338Q333 335 333 330Q333 319 343 315T377 310L372 288H146L151 310Q179 310 191 316T206 338L276 670H237Q211 670 194 653T165 606H137L155 692ZM512 310Q531 311 541 314T558 326T568 348T577 383L627 615Q614 667 567 670L572 692H729L800 430L989 692H1132L1127 670Q1078 670 1072 642L1008 338Q1007 335 1007 330Q1007 319 1017 315T1051 310L1046 288H826L831 310Q859 310 871 316T886 338L930 555L741 288H719L645 567L605 383Q599 354 599 340Q599 324 608 318T643 310L638 288H507L512 310Z"  />

</font>
</defs>
</svg>
